<svg width="256" height="256" viewBox="0 0 256 256" fill="none" xmlns="http://www.w3.org/2000/svg">
<path fill-rule="evenodd" clip-rule="evenodd" d="M104.425 37.3784C100.056 32.0733 93.5437 29 86.6712 29H29C22.3726 29 17 34.3726 17 41V53.1371V63.2V155C17 161.627 22.3726 167 29 167H229C235.627 167 241 161.627 241 155V65.1371C241 58.5097 235.627 53.1371 229 53.1371H117.404L104.425 37.3784Z" fill="url(#paint0_linear_504_857)"/>
<mask id="mask0_504_857" style="mask-type:alpha" maskUnits="userSpaceOnUse" x="17" y="29" width="224" height="138">
<path fill-rule="evenodd" clip-rule="evenodd" d="M104.425 37.3784C100.056 32.0733 93.5437 29 86.6712 29H29C22.3726 29 17 34.3726 17 41V53.1371V63.2V155C17 161.627 22.3726 167 29 167H229C235.627 167 241 161.627 241 155V65.1371C241 58.5097 235.627 53.1371 229 53.1371H117.404L104.425 37.3784Z" fill="url(#paint1_linear_504_857)"/>
</mask>
<g mask="url(#mask0_504_857)">
<g filter="url(#filter0_f_504_857)">
<path fill-rule="evenodd" clip-rule="evenodd" d="M92.789 69C97.7642 69 102.605 67.3868 106.586 64.4024L116.459 57H229C235.627 57 241 62.3726 241 69V103V155C241 161.627 235.627 167 229 167H29C22.3726 167 17 161.627 17 155L17 103V81C17 74.3726 22.3726 69 29 69H87H92.789Z" fill="black" fill-opacity="0.3"/>
</g>
</g>
<g filter="url(#filter1_ii_504_857)">
<path fill-rule="evenodd" clip-rule="evenodd" d="M92.789 74C97.7642 74 102.605 72.3868 106.586 69.4024L116.459 62H229C235.627 62 241 67.3726 241 74V108V198C241 204.627 235.627 210 229 210H29C22.3726 210 17 204.627 17 198L17 108V86C17 79.3726 22.3726 74 29 74H87H92.789Z" fill="url(#paint2_linear_504_857)"/>
</g>
<path fill-rule="evenodd" clip-rule="evenodd" d="M120 51C120 44.9249 124.925 40 131 40C137.075 40 142 44.9249 142 51V64C142 70.0751 137.075 75 131 75C124.925 75 120 70.0751 120 64V51ZM207 51C207 44.9249 211.925 40 218 40C224.075 40 229 44.9249 229 51V64C229 70.0751 224.075 75 218 75C211.925 75 207 70.0751 207 64V51ZM175 40C168.925 40 164 44.9249 164 51V64C164 70.0751 168.925 75 175 75C181.075 75 186 70.0751 186 64V51C186 44.9249 181.075 40 175 40Z" fill="url(#paint3_linear_504_857)"/>
<g filter="url(#filter2_d_504_857)">
<path d="M49.9531 173.422V158.422C52.6719 160.703 55.625 162.422 58.8125 163.578C62 164.703 65.2188 165.266 68.4688 165.266C70.375 165.266 72.0312 165.094 73.4375 164.75C74.875 164.406 76.0625 163.938 77 163.344C77.9688 162.719 78.6875 162 79.1562 161.188C79.625 160.344 79.8594 159.438 79.8594 158.469C79.8594 157.156 79.4844 155.984 78.7344 154.953C77.9844 153.922 76.9531 152.969 75.6406 152.094C74.3594 151.219 72.8281 150.375 71.0469 149.562C69.2656 148.75 67.3438 147.922 65.2812 147.078C60.0312 144.891 56.1094 142.219 53.5156 139.062C50.9531 135.906 49.6719 132.094 49.6719 127.625C49.6719 124.125 50.375 121.125 51.7812 118.625C53.1875 116.094 55.0938 114.016 57.5 112.391C59.9375 110.766 62.75 109.578 65.9375 108.828C69.125 108.047 72.5 107.656 76.0625 107.656C79.5625 107.656 82.6562 107.875 85.3438 108.312C88.0625 108.719 90.5625 109.359 92.8438 110.234V124.25C91.7188 123.469 90.4844 122.781 89.1406 122.188C87.8281 121.594 86.4688 121.109 85.0625 120.734C83.6562 120.328 82.25 120.031 80.8438 119.844C79.4688 119.656 78.1562 119.562 76.9062 119.562C75.1875 119.562 73.625 119.734 72.2188 120.078C70.8125 120.391 69.625 120.844 68.6562 121.438C67.6875 122.031 66.9375 122.75 66.4062 123.594C65.875 124.406 65.6094 125.328 65.6094 126.359C65.6094 127.484 65.9062 128.5 66.5 129.406C67.0938 130.281 67.9375 131.125 69.0312 131.938C70.125 132.719 71.4531 133.5 73.0156 134.281C74.5781 135.031 76.3438 135.812 78.3125 136.625C81 137.75 83.4062 138.953 85.5312 140.234C87.6875 141.484 89.5312 142.906 91.0625 144.5C92.5938 146.094 93.7656 147.922 94.5781 149.984C95.3906 152.016 95.7969 154.391 95.7969 157.109C95.7969 160.859 95.0781 164.016 93.6406 166.578C92.2344 169.109 90.3125 171.172 87.875 172.766C85.4375 174.328 82.5938 175.453 79.3438 176.141C76.125 176.828 72.7188 177.172 69.125 177.172C65.4375 177.172 61.9219 176.859 58.5781 176.234C55.2656 175.609 52.3906 174.672 49.9531 173.422ZM148.531 156.219H117.219C117.719 163.188 122.109 166.672 130.391 166.672C135.672 166.672 140.312 165.422 144.312 162.922V173.609C139.875 175.984 134.109 177.172 127.016 177.172C119.266 177.172 113.25 175.031 108.969 170.75C104.688 166.438 102.547 160.438 102.547 152.75C102.547 144.781 104.859 138.469 109.484 133.812C114.109 129.156 119.797 126.828 126.547 126.828C133.547 126.828 138.953 128.906 142.766 133.062C146.609 137.219 148.531 142.859 148.531 149.984V156.219ZM134.797 147.125C134.797 140.25 132.016 136.812 126.453 136.812C124.078 136.812 122.016 137.797 120.266 139.766C118.547 141.734 117.5 144.188 117.125 147.125H134.797ZM172.344 170.422H172.156V198.078H157.344V128H172.156V135.219H172.344C176 129.625 181.141 126.828 187.766 126.828C193.984 126.828 198.781 128.969 202.156 133.25C205.562 137.5 207.266 143.297 207.266 150.641C207.266 158.641 205.281 165.062 201.312 169.906C197.375 174.75 192.125 177.172 185.562 177.172C179.781 177.172 175.375 174.922 172.344 170.422ZM171.922 150.734V154.578C171.922 157.891 172.797 160.594 174.547 162.688C176.297 164.781 178.594 165.828 181.438 165.828C184.812 165.828 187.422 164.531 189.266 161.938C191.141 159.312 192.078 155.609 192.078 150.828C192.078 142.391 188.797 138.172 182.234 138.172C179.203 138.172 176.719 139.328 174.781 141.641C172.875 143.922 171.922 146.953 171.922 150.734Z" fill="black"/>
</g>
<defs>
<filter id="filter0_f_504_857" x="-20" y="20" width="298" height="184" filterUnits="userSpaceOnUse" color-interpolation-filters="sRGB">
<feFlood flood-opacity="0" result="BackgroundImageFix"/>
<feBlend mode="normal" in="SourceGraphic" in2="BackgroundImageFix" result="shape"/>
<feGaussianBlur stdDeviation="18.5" result="effect1_foregroundBlur_504_857"/>
</filter>
<filter id="filter1_ii_504_857" x="17" y="62" width="224" height="148" filterUnits="userSpaceOnUse" color-interpolation-filters="sRGB">
<feFlood flood-opacity="0" result="BackgroundImageFix"/>
<feBlend mode="normal" in="SourceGraphic" in2="BackgroundImageFix" result="shape"/>
<feColorMatrix in="SourceAlpha" type="matrix" values="0 0 0 0 0 0 0 0 0 0 0 0 0 0 0 0 0 0 127 0" result="hardAlpha"/>
<feOffset dy="4"/>
<feComposite in2="hardAlpha" operator="arithmetic" k2="-1" k3="1"/>
<feColorMatrix type="matrix" values="0 0 0 0 1 0 0 0 0 1 0 0 0 0 1 0 0 0 0.25 0"/>
<feBlend mode="normal" in2="shape" result="effect1_innerShadow_504_857"/>
<feColorMatrix in="SourceAlpha" type="matrix" values="0 0 0 0 0 0 0 0 0 0 0 0 0 0 0 0 0 0 127 0" result="hardAlpha"/>
<feOffset dy="-4"/>
<feComposite in2="hardAlpha" operator="arithmetic" k2="-1" k3="1"/>
<feColorMatrix type="matrix" values="0 0 0 0 0 0 0 0 0 0 0 0 0 0 0 0 0 0 0.9 0"/>
<feBlend mode="soft-light" in2="effect1_innerShadow_504_857" result="effect2_innerShadow_504_857"/>
</filter>
<filter id="filter2_d_504_857" x="2.67188" y="67.6562" width="251.594" height="184.422" filterUnits="userSpaceOnUse" color-interpolation-filters="sRGB">
<feFlood flood-opacity="0" result="BackgroundImageFix"/>
<feColorMatrix in="SourceAlpha" type="matrix" values="0 0 0 0 0 0 0 0 0 0 0 0 0 0 0 0 0 0 127 0" result="hardAlpha"/>
<feOffset dy="7"/>
<feGaussianBlur stdDeviation="23.5"/>
<feComposite in2="hardAlpha" operator="out"/>
<feColorMatrix type="matrix" values="0 0 0 0 0 0 0 0 0 0 0 0 0 0 0 0 0 0 0.25 0"/>
<feBlend mode="normal" in2="BackgroundImageFix" result="effect1_dropShadow_504_857"/>
<feBlend mode="normal" in="SourceGraphic" in2="effect1_dropShadow_504_857" result="shape"/>
</filter>
<linearGradient id="paint0_linear_504_857" x1="17" y1="29" x2="241" y2="206.5" gradientUnits="userSpaceOnUse">
<stop stop-color="#FF0000"/>
<stop offset="1" stop-color="#A70000"/>
</linearGradient>
<linearGradient id="paint1_linear_504_857" x1="17" y1="29" x2="197.768" y2="210.142" gradientUnits="userSpaceOnUse">
<stop stop-color="#05815D"/>
<stop offset="1" stop-color="#0C575F"/>
</linearGradient>
<linearGradient id="paint2_linear_504_857" x1="17" y1="62" x2="241" y2="210" gradientUnits="userSpaceOnUse">
<stop stop-color="white"/>
<stop offset="0.953125" stop-color="#D1D1D1"/>
</linearGradient>
<linearGradient id="paint3_linear_504_857" x1="120" y1="40" x2="220.802" y2="91.1542" gradientUnits="userSpaceOnUse">
<stop stop-color="#B0B0B0"/>
<stop offset="1" stop-color="#7D7D7D"/>
</linearGradient>
</defs>
</svg>
