<svg width="256" height="256" viewBox="0 0 256 256" fill="none" xmlns="http://www.w3.org/2000/svg">
<path fill-rule="evenodd" clip-rule="evenodd" d="M104.425 37.3784C100.056 32.0733 93.5437 29 86.6712 29H29C22.3726 29 17 34.3726 17 41V53.1371V63.2V155C17 161.627 22.3726 167 29 167H229C235.627 167 241 161.627 241 155V65.1371C241 58.5097 235.627 53.1371 229 53.1371H117.404L104.425 37.3784Z" fill="url(#paint0_linear_504_549)"/>
<mask id="mask0_504_549" style="mask-type:alpha" maskUnits="userSpaceOnUse" x="17" y="29" width="224" height="138">
<path fill-rule="evenodd" clip-rule="evenodd" d="M104.425 37.3784C100.056 32.0733 93.5437 29 86.6712 29H29C22.3726 29 17 34.3726 17 41V53.1371V63.2V155C17 161.627 22.3726 167 29 167H229C235.627 167 241 161.627 241 155V65.1371C241 58.5097 235.627 53.1371 229 53.1371H117.404L104.425 37.3784Z" fill="url(#paint1_linear_504_549)"/>
</mask>
<g mask="url(#mask0_504_549)">
<g filter="url(#filter0_f_504_549)">
<path fill-rule="evenodd" clip-rule="evenodd" d="M92.789 69C97.7642 69 102.605 67.3868 106.586 64.4024L116.459 57H229C235.627 57 241 62.3726 241 69V103V155C241 161.627 235.627 167 229 167H29C22.3726 167 17 161.627 17 155L17 103V81C17 74.3726 22.3726 69 29 69H87H92.789Z" fill="black" fill-opacity="0.3"/>
</g>
</g>
<g filter="url(#filter1_ii_504_549)">
<path fill-rule="evenodd" clip-rule="evenodd" d="M92.789 74C97.7642 74 102.605 72.3868 106.586 69.4024L116.459 62H229C235.627 62 241 67.3726 241 74V108V198C241 204.627 235.627 210 229 210H29C22.3726 210 17 204.627 17 198L17 108V86C17 79.3726 22.3726 74 29 74H87H92.789Z" fill="url(#paint2_linear_504_549)"/>
</g>
<path fill-rule="evenodd" clip-rule="evenodd" d="M120 51C120 44.9249 124.925 40 131 40C137.075 40 142 44.9249 142 51V64C142 70.0751 137.075 75 131 75C124.925 75 120 70.0751 120 64V51ZM207 51C207 44.9249 211.925 40 218 40C224.075 40 229 44.9249 229 51V64C229 70.0751 224.075 75 218 75C211.925 75 207 70.0751 207 64V51ZM175 40C168.925 40 164 44.9249 164 51V64C164 70.0751 168.925 75 175 75C181.075 75 186 70.0751 186 64V51C186 44.9249 181.075 40 175 40Z" fill="url(#paint3_linear_504_549)"/>
<g filter="url(#filter2_d_504_549)">
<path d="M93.8281 121.109H70.1094V137.609H91.9062V149.891H70.1094V176H54.9688V108.781H93.8281V121.109ZM146.609 156.219H115.297C115.797 163.188 120.188 166.672 128.469 166.672C133.75 166.672 138.391 165.422 142.391 162.922V173.609C137.953 175.984 132.188 177.172 125.094 177.172C117.344 177.172 111.328 175.031 107.047 170.75C102.766 166.438 100.625 160.438 100.625 152.75C100.625 144.781 102.938 138.469 107.562 133.812C112.188 129.156 117.875 126.828 124.625 126.828C131.625 126.828 137.031 128.906 140.844 133.062C144.688 137.219 146.609 142.859 146.609 149.984V156.219ZM132.875 147.125C132.875 140.25 130.094 136.812 124.531 136.812C122.156 136.812 120.094 137.797 118.344 139.766C116.625 141.734 115.578 144.188 115.203 147.125H132.875ZM170.422 170.422H170.234V176H155.422V104.938H170.234V135.219H170.422C174.078 129.625 179.281 126.828 186.031 126.828C192.219 126.828 196.984 128.953 200.328 133.203C203.672 137.453 205.344 143.266 205.344 150.641C205.344 158.641 203.391 165.062 199.484 169.906C195.578 174.75 190.359 177.172 183.828 177.172C177.922 177.172 173.453 174.922 170.422 170.422ZM170 150.172V155.094C170 158.188 170.891 160.75 172.672 162.781C174.453 164.812 176.734 165.828 179.516 165.828C182.891 165.828 185.5 164.531 187.344 161.938C189.219 159.312 190.156 155.609 190.156 150.828C190.156 146.859 189.297 143.766 187.578 141.547C185.891 139.297 183.469 138.172 180.312 138.172C177.344 138.172 174.875 139.281 172.906 141.5C170.969 143.719 170 146.609 170 150.172Z" fill="black"/>
</g>
<defs>
<filter id="filter0_f_504_549" x="-20" y="20" width="298" height="184" filterUnits="userSpaceOnUse" color-interpolation-filters="sRGB">
<feFlood flood-opacity="0" result="BackgroundImageFix"/>
<feBlend mode="normal" in="SourceGraphic" in2="BackgroundImageFix" result="shape"/>
<feGaussianBlur stdDeviation="18.5" result="effect1_foregroundBlur_504_549"/>
</filter>
<filter id="filter1_ii_504_549" x="17" y="62" width="224" height="148" filterUnits="userSpaceOnUse" color-interpolation-filters="sRGB">
<feFlood flood-opacity="0" result="BackgroundImageFix"/>
<feBlend mode="normal" in="SourceGraphic" in2="BackgroundImageFix" result="shape"/>
<feColorMatrix in="SourceAlpha" type="matrix" values="0 0 0 0 0 0 0 0 0 0 0 0 0 0 0 0 0 0 127 0" result="hardAlpha"/>
<feOffset dy="4"/>
<feComposite in2="hardAlpha" operator="arithmetic" k2="-1" k3="1"/>
<feColorMatrix type="matrix" values="0 0 0 0 1 0 0 0 0 1 0 0 0 0 1 0 0 0 0.25 0"/>
<feBlend mode="normal" in2="shape" result="effect1_innerShadow_504_549"/>
<feColorMatrix in="SourceAlpha" type="matrix" values="0 0 0 0 0 0 0 0 0 0 0 0 0 0 0 0 0 0 127 0" result="hardAlpha"/>
<feOffset dy="-4"/>
<feComposite in2="hardAlpha" operator="arithmetic" k2="-1" k3="1"/>
<feColorMatrix type="matrix" values="0 0 0 0 0 0 0 0 0 0 0 0 0 0 0 0 0 0 0.9 0"/>
<feBlend mode="soft-light" in2="effect1_innerShadow_504_549" result="effect2_innerShadow_504_549"/>
</filter>
<filter id="filter2_d_504_549" x="7.96875" y="64.9375" width="244.375" height="166.234" filterUnits="userSpaceOnUse" color-interpolation-filters="sRGB">
<feFlood flood-opacity="0" result="BackgroundImageFix"/>
<feColorMatrix in="SourceAlpha" type="matrix" values="0 0 0 0 0 0 0 0 0 0 0 0 0 0 0 0 0 0 127 0" result="hardAlpha"/>
<feOffset dy="7"/>
<feGaussianBlur stdDeviation="23.5"/>
<feComposite in2="hardAlpha" operator="out"/>
<feColorMatrix type="matrix" values="0 0 0 0 0 0 0 0 0 0 0 0 0 0 0 0 0 0 0.25 0"/>
<feBlend mode="normal" in2="BackgroundImageFix" result="effect1_dropShadow_504_549"/>
<feBlend mode="normal" in="SourceGraphic" in2="effect1_dropShadow_504_549" result="shape"/>
</filter>
<linearGradient id="paint0_linear_504_549" x1="17" y1="29" x2="241" y2="206.5" gradientUnits="userSpaceOnUse">
<stop stop-color="#FF0000"/>
<stop offset="1" stop-color="#A70000"/>
</linearGradient>
<linearGradient id="paint1_linear_504_549" x1="17" y1="29" x2="197.768" y2="210.142" gradientUnits="userSpaceOnUse">
<stop stop-color="#05815D"/>
<stop offset="1" stop-color="#0C575F"/>
</linearGradient>
<linearGradient id="paint2_linear_504_549" x1="17" y1="62" x2="241" y2="210" gradientUnits="userSpaceOnUse">
<stop stop-color="white"/>
<stop offset="0.953125" stop-color="#D1D1D1"/>
</linearGradient>
<linearGradient id="paint3_linear_504_549" x1="120" y1="40" x2="220.802" y2="91.1542" gradientUnits="userSpaceOnUse">
<stop stop-color="#B0B0B0"/>
<stop offset="1" stop-color="#7D7D7D"/>
</linearGradient>
</defs>
</svg>
