<svg width="256" height="256" viewBox="0 0 256 256" fill="none" xmlns="http://www.w3.org/2000/svg">
<g clip-path="url(#clip0_504_681)">
<path fill-rule="evenodd" clip-rule="evenodd" d="M104.425 37.3784C100.056 32.0733 93.5437 29 86.6712 29H29C22.3726 29 17 34.3726 17 41V53.1371V63.2V155C17 161.627 22.3726 167 29 167H229C235.627 167 241 161.627 241 155V65.1371C241 58.5097 235.627 53.1371 229 53.1371H117.404L104.425 37.3784Z" fill="url(#paint0_linear_504_681)"/>
<mask id="mask0_504_681" style="mask-type:alpha" maskUnits="userSpaceOnUse" x="17" y="29" width="224" height="138">
<path fill-rule="evenodd" clip-rule="evenodd" d="M104.425 37.3784C100.056 32.0733 93.5437 29 86.6712 29H29C22.3726 29 17 34.3726 17 41V53.1371V63.2V155C17 161.627 22.3726 167 29 167H229C235.627 167 241 161.627 241 155V65.1371C241 58.5097 235.627 53.1371 229 53.1371H117.404L104.425 37.3784Z" fill="url(#paint1_linear_504_681)"/>
</mask>
<g mask="url(#mask0_504_681)">
<g filter="url(#filter0_f_504_681)">
<path fill-rule="evenodd" clip-rule="evenodd" d="M92.789 69C97.7642 69 102.605 67.3868 106.586 64.4024L116.459 57H229C235.627 57 241 62.3726 241 69V103V155C241 161.627 235.627 167 229 167H29C22.3726 167 17 161.627 17 155L17 103V81C17 74.3726 22.3726 69 29 69H87H92.789Z" fill="black" fill-opacity="0.3"/>
</g>
</g>
<g filter="url(#filter1_ii_504_681)">
<path fill-rule="evenodd" clip-rule="evenodd" d="M92.789 74C97.7642 74 102.605 72.3868 106.586 69.4024L116.459 62H229C235.627 62 241 67.3726 241 74V108V198C241 204.627 235.627 210 229 210H29C22.3726 210 17 204.627 17 198L17 108V86C17 79.3726 22.3726 74 29 74H87H92.789Z" fill="url(#paint2_linear_504_681)"/>
</g>
<path fill-rule="evenodd" clip-rule="evenodd" d="M120 51C120 44.9249 124.925 40 131 40C137.075 40 142 44.9249 142 51V64C142 70.0751 137.075 75 131 75C124.925 75 120 70.0751 120 64V51ZM207 51C207 44.9249 211.925 40 218 40C224.075 40 229 44.9249 229 51V64C229 70.0751 224.075 75 218 75C211.925 75 207 70.0751 207 64V51ZM175 40C168.925 40 164 44.9249 164 51V64C164 70.0751 168.925 75 175 75C181.075 75 186 70.0751 186 64V51C186 44.9249 181.075 40 175 40Z" fill="url(#paint3_linear_504_681)"/>
<g filter="url(#filter2_d_504_681)">
<path d="M114.688 176H99.7344V135.781C99.7344 131.438 99.9219 126.641 100.297 121.391H99.9219C99.1406 125.516 98.4375 128.484 97.8125 130.297L82.0625 176H69.6875L53.6562 130.766C53.2188 129.547 52.5156 126.422 51.5469 121.391H51.125C51.5312 128.016 51.7344 133.828 51.7344 138.828V176H38.0938V108.781H60.2656L74 148.625C75.0938 151.812 75.8906 155.016 76.3906 158.234H76.6719C77.5156 154.516 78.4062 151.281 79.3438 148.531L93.0781 108.781H114.688V176ZM168.453 176H154.438V169.109H154.25C151.031 174.484 146.266 177.172 139.953 177.172C135.297 177.172 131.625 175.859 128.938 173.234C126.281 170.578 124.953 167.047 124.953 162.641C124.953 153.328 130.469 147.953 141.5 146.516L154.531 144.781C154.531 139.531 151.688 136.906 146 136.906C140.281 136.906 134.844 138.609 129.688 142.016V130.859C131.75 129.797 134.562 128.859 138.125 128.047C141.719 127.234 144.984 126.828 147.922 126.828C161.609 126.828 168.453 133.656 168.453 147.312V176ZM154.531 156.5V153.266L145.812 154.391C141 155.016 138.594 157.188 138.594 160.906C138.594 162.594 139.172 163.984 140.328 165.078C141.516 166.141 143.109 166.672 145.109 166.672C147.891 166.672 150.156 165.719 151.906 163.812C153.656 161.875 154.531 159.438 154.531 156.5ZM225.875 128L206.375 179.844C201.688 192.312 194.625 198.547 185.188 198.547C181.594 198.547 178.641 198.141 176.328 197.328V185.516C178.297 186.672 180.438 187.25 182.75 187.25C186.562 187.25 189.219 185.453 190.719 181.859L193.25 175.906L173.75 128H190.156L199.109 157.203C199.672 159.016 200.109 161.156 200.422 163.625H200.609C200.891 161.812 201.406 159.703 202.156 157.297L211.203 128H225.875Z" fill="black"/>
</g>
</g>
<defs>
<filter id="filter0_f_504_681" x="-20" y="20" width="298" height="184" filterUnits="userSpaceOnUse" color-interpolation-filters="sRGB">
<feFlood flood-opacity="0" result="BackgroundImageFix"/>
<feBlend mode="normal" in="SourceGraphic" in2="BackgroundImageFix" result="shape"/>
<feGaussianBlur stdDeviation="18.5" result="effect1_foregroundBlur_504_681"/>
</filter>
<filter id="filter1_ii_504_681" x="17" y="62" width="224" height="148" filterUnits="userSpaceOnUse" color-interpolation-filters="sRGB">
<feFlood flood-opacity="0" result="BackgroundImageFix"/>
<feBlend mode="normal" in="SourceGraphic" in2="BackgroundImageFix" result="shape"/>
<feColorMatrix in="SourceAlpha" type="matrix" values="0 0 0 0 0 0 0 0 0 0 0 0 0 0 0 0 0 0 127 0" result="hardAlpha"/>
<feOffset dy="4"/>
<feComposite in2="hardAlpha" operator="arithmetic" k2="-1" k3="1"/>
<feColorMatrix type="matrix" values="0 0 0 0 1 0 0 0 0 1 0 0 0 0 1 0 0 0 0.25 0"/>
<feBlend mode="normal" in2="shape" result="effect1_innerShadow_504_681"/>
<feColorMatrix in="SourceAlpha" type="matrix" values="0 0 0 0 0 0 0 0 0 0 0 0 0 0 0 0 0 0 127 0" result="hardAlpha"/>
<feOffset dy="-4"/>
<feComposite in2="hardAlpha" operator="arithmetic" k2="-1" k3="1"/>
<feColorMatrix type="matrix" values="0 0 0 0 0 0 0 0 0 0 0 0 0 0 0 0 0 0 0.9 0"/>
<feBlend mode="soft-light" in2="effect1_innerShadow_504_681" result="effect2_innerShadow_504_681"/>
</filter>
<filter id="filter2_d_504_681" x="-8.90625" y="68.7812" width="281.781" height="183.766" filterUnits="userSpaceOnUse" color-interpolation-filters="sRGB">
<feFlood flood-opacity="0" result="BackgroundImageFix"/>
<feColorMatrix in="SourceAlpha" type="matrix" values="0 0 0 0 0 0 0 0 0 0 0 0 0 0 0 0 0 0 127 0" result="hardAlpha"/>
<feOffset dy="7"/>
<feGaussianBlur stdDeviation="23.5"/>
<feComposite in2="hardAlpha" operator="out"/>
<feColorMatrix type="matrix" values="0 0 0 0 0 0 0 0 0 0 0 0 0 0 0 0 0 0 0.25 0"/>
<feBlend mode="normal" in2="BackgroundImageFix" result="effect1_dropShadow_504_681"/>
<feBlend mode="normal" in="SourceGraphic" in2="effect1_dropShadow_504_681" result="shape"/>
</filter>
<linearGradient id="paint0_linear_504_681" x1="17" y1="29" x2="241" y2="206.5" gradientUnits="userSpaceOnUse">
<stop stop-color="#FF0000"/>
<stop offset="1" stop-color="#A70000"/>
</linearGradient>
<linearGradient id="paint1_linear_504_681" x1="17" y1="29" x2="197.768" y2="210.142" gradientUnits="userSpaceOnUse">
<stop stop-color="#05815D"/>
<stop offset="1" stop-color="#0C575F"/>
</linearGradient>
<linearGradient id="paint2_linear_504_681" x1="17" y1="62" x2="241" y2="210" gradientUnits="userSpaceOnUse">
<stop stop-color="white"/>
<stop offset="0.953125" stop-color="#D1D1D1"/>
</linearGradient>
<linearGradient id="paint3_linear_504_681" x1="120" y1="40" x2="220.802" y2="91.1542" gradientUnits="userSpaceOnUse">
<stop stop-color="#B0B0B0"/>
<stop offset="1" stop-color="#7D7D7D"/>
</linearGradient>
<clipPath id="clip0_504_681">
<rect width="256" height="256" fill="white"/>
</clipPath>
</defs>
</svg>
