<svg width="256" height="256" viewBox="0 0 256 256" fill="none" xmlns="http://www.w3.org/2000/svg">
<path fill-rule="evenodd" clip-rule="evenodd" d="M104.425 37.3784C100.056 32.0733 93.5437 29 86.6712 29H29C22.3726 29 17 34.3726 17 41V53.1371V63.2V155C17 161.627 22.3726 167 29 167H229C235.627 167 241 161.627 241 155V65.1371C241 58.5097 235.627 53.1371 229 53.1371H117.404L104.425 37.3784Z" fill="url(#paint0_linear_504_901)"/>
<mask id="mask0_504_901" style="mask-type:alpha" maskUnits="userSpaceOnUse" x="17" y="29" width="224" height="138">
<path fill-rule="evenodd" clip-rule="evenodd" d="M104.425 37.3784C100.056 32.0733 93.5437 29 86.6712 29H29C22.3726 29 17 34.3726 17 41V53.1371V63.2V155C17 161.627 22.3726 167 29 167H229C235.627 167 241 161.627 241 155V65.1371C241 58.5097 235.627 53.1371 229 53.1371H117.404L104.425 37.3784Z" fill="url(#paint1_linear_504_901)"/>
</mask>
<g mask="url(#mask0_504_901)">
<g filter="url(#filter0_f_504_901)">
<path fill-rule="evenodd" clip-rule="evenodd" d="M92.789 69C97.7642 69 102.605 67.3868 106.586 64.4024L116.459 57H229C235.627 57 241 62.3726 241 69V103V155C241 161.627 235.627 167 229 167H29C22.3726 167 17 161.627 17 155L17 103V81C17 74.3726 22.3726 69 29 69H87H92.789Z" fill="black" fill-opacity="0.3"/>
</g>
</g>
<g filter="url(#filter1_ii_504_901)">
<path fill-rule="evenodd" clip-rule="evenodd" d="M92.789 74C97.7642 74 102.605 72.3868 106.586 69.4024L116.459 62H229C235.627 62 241 67.3726 241 74V108V198C241 204.627 235.627 210 229 210H29C22.3726 210 17 204.627 17 198L17 108V86C17 79.3726 22.3726 74 29 74H87H92.789Z" fill="url(#paint2_linear_504_901)"/>
</g>
<path fill-rule="evenodd" clip-rule="evenodd" d="M120 51C120 44.9249 124.925 40 131 40C137.075 40 142 44.9249 142 51V64C142 70.0751 137.075 75 131 75C124.925 75 120 70.0751 120 64V51ZM207 51C207 44.9249 211.925 40 218 40C224.075 40 229 44.9249 229 51V64C229 70.0751 224.075 75 218 75C211.925 75 207 70.0751 207 64V51ZM175 40C168.925 40 164 44.9249 164 51V64C164 70.0751 168.925 75 175 75C181.075 75 186 70.0751 186 64V51C186 44.9249 181.075 40 175 40Z" fill="url(#paint3_linear_504_901)"/>
<g filter="url(#filter2_d_504_901)">
<path d="M86.4062 177.172C76.7812 177.172 68.9375 174.047 62.875 167.797C56.8125 161.516 53.7812 153.344 53.7812 143.281C53.7812 132.656 56.8594 124.062 63.0156 117.5C69.1719 110.938 77.3281 107.656 87.4844 107.656C97.0781 107.656 104.828 110.797 110.734 117.078C116.672 123.359 119.641 131.641 119.641 141.922C119.641 152.484 116.562 161 110.406 167.469C104.281 173.938 96.2812 177.172 86.4062 177.172ZM87.0625 120.688C81.75 120.688 77.5312 122.688 74.4062 126.688C71.2812 130.656 69.7188 135.922 69.7188 142.484C69.7188 149.141 71.2812 154.406 74.4062 158.281C77.5312 162.156 81.625 164.094 86.6875 164.094C91.9062 164.094 96.0469 162.219 99.1094 158.469C102.172 154.688 103.703 149.453 103.703 142.766C103.703 135.797 102.219 130.375 99.25 126.5C96.2812 122.625 92.2188 120.688 87.0625 120.688ZM165.766 174.266C162.422 176.203 157.594 177.172 151.281 177.172C143.906 177.172 137.938 174.938 133.375 170.469C128.812 166 126.531 160.234 126.531 153.172C126.531 145.016 128.969 138.594 133.844 133.906C138.75 129.188 145.297 126.828 153.484 126.828C159.141 126.828 163.234 127.578 165.766 129.078V141.641C162.672 139.328 159.219 138.172 155.406 138.172C151.156 138.172 147.781 139.422 145.281 141.922C142.812 144.391 141.578 147.812 141.578 152.188C141.578 156.438 142.766 159.781 145.141 162.219C147.516 164.625 150.781 165.828 154.938 165.828C158.625 165.828 162.234 164.672 165.766 162.359V174.266ZM204.531 175.438C202.344 176.594 199.047 177.172 194.641 177.172C184.203 177.172 178.984 171.75 178.984 160.906V138.922H171.203V128H178.984V117.641L193.75 113.422V128H204.531V138.922H193.75V158.328C193.75 163.328 195.734 165.828 199.703 165.828C201.266 165.828 202.875 165.375 204.531 164.469V175.438Z" fill="black"/>
</g>
<defs>
<filter id="filter0_f_504_901" x="-20" y="20" width="298" height="184" filterUnits="userSpaceOnUse" color-interpolation-filters="sRGB">
<feFlood flood-opacity="0" result="BackgroundImageFix"/>
<feBlend mode="normal" in="SourceGraphic" in2="BackgroundImageFix" result="shape"/>
<feGaussianBlur stdDeviation="18.5" result="effect1_foregroundBlur_504_901"/>
</filter>
<filter id="filter1_ii_504_901" x="17" y="62" width="224" height="148" filterUnits="userSpaceOnUse" color-interpolation-filters="sRGB">
<feFlood flood-opacity="0" result="BackgroundImageFix"/>
<feBlend mode="normal" in="SourceGraphic" in2="BackgroundImageFix" result="shape"/>
<feColorMatrix in="SourceAlpha" type="matrix" values="0 0 0 0 0 0 0 0 0 0 0 0 0 0 0 0 0 0 127 0" result="hardAlpha"/>
<feOffset dy="4"/>
<feComposite in2="hardAlpha" operator="arithmetic" k2="-1" k3="1"/>
<feColorMatrix type="matrix" values="0 0 0 0 1 0 0 0 0 1 0 0 0 0 1 0 0 0 0.25 0"/>
<feBlend mode="normal" in2="shape" result="effect1_innerShadow_504_901"/>
<feColorMatrix in="SourceAlpha" type="matrix" values="0 0 0 0 0 0 0 0 0 0 0 0 0 0 0 0 0 0 127 0" result="hardAlpha"/>
<feOffset dy="-4"/>
<feComposite in2="hardAlpha" operator="arithmetic" k2="-1" k3="1"/>
<feColorMatrix type="matrix" values="0 0 0 0 0 0 0 0 0 0 0 0 0 0 0 0 0 0 0.9 0"/>
<feBlend mode="soft-light" in2="effect1_innerShadow_504_901" result="effect2_innerShadow_504_901"/>
</filter>
<filter id="filter2_d_504_901" x="6.78125" y="67.6562" width="244.75" height="163.516" filterUnits="userSpaceOnUse" color-interpolation-filters="sRGB">
<feFlood flood-opacity="0" result="BackgroundImageFix"/>
<feColorMatrix in="SourceAlpha" type="matrix" values="0 0 0 0 0 0 0 0 0 0 0 0 0 0 0 0 0 0 127 0" result="hardAlpha"/>
<feOffset dy="7"/>
<feGaussianBlur stdDeviation="23.5"/>
<feComposite in2="hardAlpha" operator="out"/>
<feColorMatrix type="matrix" values="0 0 0 0 0 0 0 0 0 0 0 0 0 0 0 0 0 0 0.25 0"/>
<feBlend mode="normal" in2="BackgroundImageFix" result="effect1_dropShadow_504_901"/>
<feBlend mode="normal" in="SourceGraphic" in2="effect1_dropShadow_504_901" result="shape"/>
</filter>
<linearGradient id="paint0_linear_504_901" x1="17" y1="29" x2="241" y2="206.5" gradientUnits="userSpaceOnUse">
<stop stop-color="#FF0000"/>
<stop offset="1" stop-color="#A70000"/>
</linearGradient>
<linearGradient id="paint1_linear_504_901" x1="17" y1="29" x2="197.768" y2="210.142" gradientUnits="userSpaceOnUse">
<stop stop-color="#05815D"/>
<stop offset="1" stop-color="#0C575F"/>
</linearGradient>
<linearGradient id="paint2_linear_504_901" x1="17" y1="62" x2="241" y2="210" gradientUnits="userSpaceOnUse">
<stop stop-color="white"/>
<stop offset="0.953125" stop-color="#D1D1D1"/>
</linearGradient>
<linearGradient id="paint3_linear_504_901" x1="120" y1="40" x2="220.802" y2="91.1542" gradientUnits="userSpaceOnUse">
<stop stop-color="#B0B0B0"/>
<stop offset="1" stop-color="#7D7D7D"/>
</linearGradient>
</defs>
</svg>
