<svg width="256" height="256" viewBox="0 0 256 256" fill="none" xmlns="http://www.w3.org/2000/svg">
<g clip-path="url(#clip0_504_813)">
<path fill-rule="evenodd" clip-rule="evenodd" d="M104.425 37.3784C100.056 32.0733 93.5437 29 86.6712 29H29C22.3726 29 17 34.3726 17 41V53.1371V63.2V155C17 161.627 22.3726 167 29 167H229C235.627 167 241 161.627 241 155V65.1371C241 58.5097 235.627 53.1371 229 53.1371H117.404L104.425 37.3784Z" fill="url(#paint0_linear_504_813)"/>
<mask id="mask0_504_813" style="mask-type:alpha" maskUnits="userSpaceOnUse" x="17" y="29" width="224" height="138">
<path fill-rule="evenodd" clip-rule="evenodd" d="M104.425 37.3784C100.056 32.0733 93.5437 29 86.6712 29H29C22.3726 29 17 34.3726 17 41V53.1371V63.2V155C17 161.627 22.3726 167 29 167H229C235.627 167 241 161.627 241 155V65.1371C241 58.5097 235.627 53.1371 229 53.1371H117.404L104.425 37.3784Z" fill="url(#paint1_linear_504_813)"/>
</mask>
<g mask="url(#mask0_504_813)">
<g filter="url(#filter0_f_504_813)">
<path fill-rule="evenodd" clip-rule="evenodd" d="M92.789 69C97.7642 69 102.605 67.3868 106.586 64.4024L116.459 57H229C235.627 57 241 62.3726 241 69V103V155C241 161.627 235.627 167 229 167H29C22.3726 167 17 161.627 17 155L17 103V81C17 74.3726 22.3726 69 29 69H87H92.789Z" fill="black" fill-opacity="0.3"/>
</g>
</g>
<g filter="url(#filter1_ii_504_813)">
<path fill-rule="evenodd" clip-rule="evenodd" d="M92.789 74C97.7642 74 102.605 72.3868 106.586 69.4024L116.459 62H229C235.627 62 241 67.3726 241 74V108V198C241 204.627 235.627 210 229 210H29C22.3726 210 17 204.627 17 198L17 108V86C17 79.3726 22.3726 74 29 74H87H92.789Z" fill="url(#paint2_linear_504_813)"/>
</g>
<path fill-rule="evenodd" clip-rule="evenodd" d="M120 51C120 44.9249 124.925 40 131 40C137.075 40 142 44.9249 142 51V64C142 70.0751 137.075 75 131 75C124.925 75 120 70.0751 120 64V51ZM207 51C207 44.9249 211.925 40 218 40C224.075 40 229 44.9249 229 51V64C229 70.0751 224.075 75 218 75C211.925 75 207 70.0751 207 64V51ZM175 40C168.925 40 164 44.9249 164 51V64C164 70.0751 168.925 75 175 75C181.075 75 186 70.0751 186 64V51C186 44.9249 181.075 40 175 40Z" fill="url(#paint3_linear_504_813)"/>
<g filter="url(#filter2_d_504_813)">
<path d="M102.266 176H85.7656L80.9844 161.047H57.0781L52.3438 176H35.9375L60.4062 108.781H78.3594L102.266 176ZM77.5156 149.422L70.2969 126.828C69.7656 125.141 69.3906 123.125 69.1719 120.781H68.7969C68.6406 122.75 68.25 124.703 67.625 126.641L60.3125 149.422H77.5156ZM154.812 176H140.047V168.688H139.812C136.156 174.344 131.266 177.172 125.141 177.172C114.016 177.172 108.453 170.438 108.453 156.969V128H123.219V155.656C123.219 162.438 125.906 165.828 131.281 165.828C133.938 165.828 136.062 164.906 137.656 163.062C139.25 161.188 140.047 158.656 140.047 155.469V128H154.812V176ZM214.391 170.516C214.391 179.422 211.812 186.312 206.656 191.188C201.5 196.094 194.031 198.547 184.25 198.547C177.781 198.547 172.656 197.625 168.875 195.781V183.312C173.812 186.188 178.797 187.625 183.828 187.625C188.828 187.625 192.703 186.297 195.453 183.641C198.203 181.016 199.578 177.438 199.578 172.906V169.109H199.391C196.016 174.484 191.031 177.172 184.438 177.172C178.312 177.172 173.453 175.016 169.859 170.703C166.266 166.391 164.469 160.609 164.469 153.359C164.469 145.234 166.469 138.781 170.469 134C174.469 129.219 179.734 126.828 186.266 126.828C192.109 126.828 196.484 129.078 199.391 133.578H199.578V128H214.391V170.516ZM199.766 152.938V149.141C199.766 146.109 198.859 143.531 197.047 141.406C195.266 139.25 192.938 138.172 190.062 138.172C186.781 138.172 184.203 139.453 182.328 142.016C180.453 144.578 179.516 148.188 179.516 152.844C179.516 156.844 180.406 160.016 182.188 162.359C183.969 164.672 186.406 165.828 189.5 165.828C192.562 165.828 195.031 164.656 196.906 162.312C198.812 159.938 199.766 156.812 199.766 152.938Z" fill="black"/>
</g>
</g>
<defs>
<filter id="filter0_f_504_813" x="-20" y="20" width="298" height="184" filterUnits="userSpaceOnUse" color-interpolation-filters="sRGB">
<feFlood flood-opacity="0" result="BackgroundImageFix"/>
<feBlend mode="normal" in="SourceGraphic" in2="BackgroundImageFix" result="shape"/>
<feGaussianBlur stdDeviation="18.5" result="effect1_foregroundBlur_504_813"/>
</filter>
<filter id="filter1_ii_504_813" x="17" y="62" width="224" height="148" filterUnits="userSpaceOnUse" color-interpolation-filters="sRGB">
<feFlood flood-opacity="0" result="BackgroundImageFix"/>
<feBlend mode="normal" in="SourceGraphic" in2="BackgroundImageFix" result="shape"/>
<feColorMatrix in="SourceAlpha" type="matrix" values="0 0 0 0 0 0 0 0 0 0 0 0 0 0 0 0 0 0 127 0" result="hardAlpha"/>
<feOffset dy="4"/>
<feComposite in2="hardAlpha" operator="arithmetic" k2="-1" k3="1"/>
<feColorMatrix type="matrix" values="0 0 0 0 1 0 0 0 0 1 0 0 0 0 1 0 0 0 0.25 0"/>
<feBlend mode="normal" in2="shape" result="effect1_innerShadow_504_813"/>
<feColorMatrix in="SourceAlpha" type="matrix" values="0 0 0 0 0 0 0 0 0 0 0 0 0 0 0 0 0 0 127 0" result="hardAlpha"/>
<feOffset dy="-4"/>
<feComposite in2="hardAlpha" operator="arithmetic" k2="-1" k3="1"/>
<feColorMatrix type="matrix" values="0 0 0 0 0 0 0 0 0 0 0 0 0 0 0 0 0 0 0.9 0"/>
<feBlend mode="soft-light" in2="effect1_innerShadow_504_813" result="effect2_innerShadow_504_813"/>
</filter>
<filter id="filter2_d_504_813" x="-11.0625" y="68.7812" width="272.453" height="183.766" filterUnits="userSpaceOnUse" color-interpolation-filters="sRGB">
<feFlood flood-opacity="0" result="BackgroundImageFix"/>
<feColorMatrix in="SourceAlpha" type="matrix" values="0 0 0 0 0 0 0 0 0 0 0 0 0 0 0 0 0 0 127 0" result="hardAlpha"/>
<feOffset dy="7"/>
<feGaussianBlur stdDeviation="23.5"/>
<feComposite in2="hardAlpha" operator="out"/>
<feColorMatrix type="matrix" values="0 0 0 0 0 0 0 0 0 0 0 0 0 0 0 0 0 0 0.25 0"/>
<feBlend mode="normal" in2="BackgroundImageFix" result="effect1_dropShadow_504_813"/>
<feBlend mode="normal" in="SourceGraphic" in2="effect1_dropShadow_504_813" result="shape"/>
</filter>
<linearGradient id="paint0_linear_504_813" x1="17" y1="29" x2="241" y2="206.5" gradientUnits="userSpaceOnUse">
<stop stop-color="#FF0000"/>
<stop offset="1" stop-color="#A70000"/>
</linearGradient>
<linearGradient id="paint1_linear_504_813" x1="17" y1="29" x2="197.768" y2="210.142" gradientUnits="userSpaceOnUse">
<stop stop-color="#05815D"/>
<stop offset="1" stop-color="#0C575F"/>
</linearGradient>
<linearGradient id="paint2_linear_504_813" x1="17" y1="62" x2="241" y2="210" gradientUnits="userSpaceOnUse">
<stop stop-color="white"/>
<stop offset="0.953125" stop-color="#D1D1D1"/>
</linearGradient>
<linearGradient id="paint3_linear_504_813" x1="120" y1="40" x2="220.802" y2="91.1542" gradientUnits="userSpaceOnUse">
<stop stop-color="#B0B0B0"/>
<stop offset="1" stop-color="#7D7D7D"/>
</linearGradient>
<clipPath id="clip0_504_813">
<rect width="256" height="256" fill="white"/>
</clipPath>
</defs>
</svg>
