<svg width="256" height="256" viewBox="0 0 256 256" fill="none" xmlns="http://www.w3.org/2000/svg">
<g clip-path="url(#clip0_2_123)">
<path fill-rule="evenodd" clip-rule="evenodd" d="M104.425 37.3784C100.056 32.0733 93.5437 29 86.6712 29H29C22.3726 29 17 34.3726 17 41V53.1371V63.2V155C17 161.627 22.3726 167 29 167H229C235.627 167 241 161.627 241 155V65.1371C241 58.5097 235.627 53.1371 229 53.1371H117.404L104.425 37.3784Z" fill="url(#paint0_linear_2_123)"/>
<mask id="mask0_2_123" style="mask-type:alpha" maskUnits="userSpaceOnUse" x="17" y="29" width="224" height="138">
<path fill-rule="evenodd" clip-rule="evenodd" d="M104.425 37.3784C100.056 32.0733 93.5437 29 86.6712 29H29C22.3726 29 17 34.3726 17 41V53.1371V63.2V155C17 161.627 22.3726 167 29 167H229C235.627 167 241 161.627 241 155V65.1371C241 58.5097 235.627 53.1371 229 53.1371H117.404L104.425 37.3784Z" fill="url(#paint1_linear_2_123)"/>
</mask>
<g mask="url(#mask0_2_123)">
<g filter="url(#filter0_f_2_123)">
<path fill-rule="evenodd" clip-rule="evenodd" d="M92.789 69C97.7642 69 102.605 67.3868 106.586 64.4024L116.459 57H229C235.627 57 241 62.3726 241 69V103V155C241 161.627 235.627 167 229 167H29C22.3726 167 17 161.627 17 155L17 103V81C17 74.3726 22.3726 69 29 69H87H92.789Z" fill="black" fill-opacity="0.3"/>
</g>
</g>
<g filter="url(#filter1_ii_2_123)">
<path fill-rule="evenodd" clip-rule="evenodd" d="M92.789 74C97.7642 74 102.605 72.3868 106.586 69.4024L116.459 62H229C235.627 62 241 67.3726 241 74V108V198C241 204.627 235.627 210 229 210H29C22.3726 210 17 204.627 17 198L17 108V86C17 79.3726 22.3726 74 29 74H87H92.789Z" fill="url(#paint2_linear_2_123)"/>
</g>
<path fill-rule="evenodd" clip-rule="evenodd" d="M120 51C120 44.9249 124.925 40 131 40C137.075 40 142 44.9249 142 51V64C142 70.0751 137.075 75 131 75C124.925 75 120 70.0751 120 64V51ZM207 51C207 44.9249 211.925 40 218 40C224.075 40 229 44.9249 229 51V64C229 70.0751 224.075 75 218 75C211.925 75 207 70.0751 207 64V51ZM175 40C168.925 40 164 44.9249 164 51V64C164 70.0751 168.925 75 175 75C181.075 75 186 70.0751 186 64V51C186 44.9249 181.075 40 175 40Z" fill="url(#paint3_linear_2_123)"/>
<g filter="url(#filter2_d_2_123)">
<path d="M53.2266 158.766H76.9766V169H39.7109V164.781C39.7109 161.917 40.1927 159.352 41.1562 157.086C42.1198 154.794 43.3307 152.75 44.7891 150.953C46.2474 149.13 47.8359 147.529 49.5547 146.148C51.2995 144.742 52.9531 143.479 54.5156 142.359C56.1562 141.188 57.5885 140.068 58.8125 139C60.0625 137.932 61.1042 136.878 61.9375 135.836C62.7969 134.768 63.4349 133.701 63.8516 132.633C64.2682 131.539 64.4766 130.38 64.4766 129.156C64.4766 126.76 63.7995 124.951 62.4453 123.727C61.0911 122.503 59.0208 121.891 56.2344 121.891C51.4167 121.891 46.8073 123.805 42.4062 127.633V116.773C47.276 113.622 52.7708 112.047 58.8906 112.047C61.7292 112.047 64.2682 112.424 66.5078 113.18C68.7734 113.909 70.6875 114.964 72.25 116.344C73.8125 117.724 74.9974 119.404 75.8047 121.383C76.638 123.336 77.0547 125.523 77.0547 127.945C77.0547 130.523 76.651 132.815 75.8438 134.82C75.0625 136.826 74.0078 138.648 72.6797 140.289C71.3776 141.93 69.8672 143.44 68.1484 144.82C66.4297 146.174 64.6458 147.49 62.7969 148.766C61.5469 149.651 60.3359 150.536 59.1641 151.422C58.0182 152.281 57.0026 153.141 56.1172 154C55.2318 154.833 54.5286 155.654 54.0078 156.461C53.487 157.268 53.2266 158.036 53.2266 158.766ZM105.18 169.977C91.8464 169.977 85.1797 160.615 85.1797 141.891C85.1797 132.177 86.9766 124.781 90.5703 119.703C94.1901 114.599 99.4245 112.047 106.273 112.047C119.294 112.047 125.805 121.565 125.805 140.602C125.805 150.081 124.021 157.346 120.453 162.398C116.911 167.451 111.82 169.977 105.18 169.977ZM105.727 121.461C100.388 121.461 97.7188 128.167 97.7188 141.578C97.7188 154.208 100.336 160.523 105.57 160.523C110.674 160.523 113.227 154.013 113.227 140.992C113.227 127.971 110.727 121.461 105.727 121.461ZM145.258 158.766H169.008V169H131.742V164.781C131.742 161.917 132.224 159.352 133.188 157.086C134.151 154.794 135.362 152.75 136.82 150.953C138.279 149.13 139.867 147.529 141.586 146.148C143.331 144.742 144.984 143.479 146.547 142.359C148.188 141.188 149.62 140.068 150.844 139C152.094 137.932 153.135 136.878 153.969 135.836C154.828 134.768 155.466 133.701 155.883 132.633C156.299 131.539 156.508 130.38 156.508 129.156C156.508 126.76 155.831 124.951 154.477 123.727C153.122 122.503 151.052 121.891 148.266 121.891C143.448 121.891 138.839 123.805 134.438 127.633V116.773C139.307 113.622 144.802 112.047 150.922 112.047C153.76 112.047 156.299 112.424 158.539 113.18C160.805 113.909 162.719 114.964 164.281 116.344C165.844 117.724 167.029 119.404 167.836 121.383C168.669 123.336 169.086 125.523 169.086 127.945C169.086 130.523 168.682 132.815 167.875 134.82C167.094 136.826 166.039 138.648 164.711 140.289C163.409 141.93 161.898 143.44 160.18 144.82C158.461 146.174 156.677 147.49 154.828 148.766C153.578 149.651 152.367 150.536 151.195 151.422C150.049 152.281 149.034 153.141 148.148 154C147.263 154.833 146.56 155.654 146.039 156.461C145.518 157.268 145.258 158.036 145.258 158.766ZM177.641 153.922C177.641 152.359 177.862 150.862 178.305 149.43C178.773 147.971 179.464 146.63 180.375 145.406C181.286 144.156 182.419 143.049 183.773 142.086C185.154 141.096 186.768 140.289 188.617 139.664C185.779 138.258 183.578 136.461 182.016 134.273C180.453 132.06 179.672 129.612 179.672 126.93C179.672 124.794 180.115 122.815 181 120.992C181.911 119.169 183.161 117.594 184.75 116.266C186.339 114.938 188.227 113.909 190.414 113.18C192.628 112.424 195.036 112.047 197.641 112.047C200.297 112.047 202.732 112.424 204.945 113.18C207.159 113.909 209.06 114.938 210.648 116.266C212.263 117.568 213.513 119.117 214.398 120.914C215.284 122.711 215.727 124.664 215.727 126.773C215.727 129.43 214.893 131.852 213.227 134.039C211.56 136.201 209.255 137.984 206.312 139.391C208.135 140.016 209.737 140.823 211.117 141.812C212.497 142.776 213.656 143.883 214.594 145.133C215.531 146.383 216.234 147.75 216.703 149.234C217.172 150.693 217.406 152.216 217.406 153.805C217.406 156.201 216.924 158.388 215.961 160.367C214.997 162.32 213.63 164.013 211.859 165.445C210.115 166.852 208.018 167.945 205.57 168.727C203.148 169.508 200.466 169.898 197.523 169.898C194.633 169.898 191.964 169.521 189.516 168.766C187.094 167.984 184.997 166.891 183.227 165.484C181.482 164.078 180.115 162.398 179.125 160.445C178.135 158.466 177.641 156.292 177.641 153.922ZM189.32 152.867C189.32 154.143 189.516 155.289 189.906 156.305C190.297 157.32 190.857 158.18 191.586 158.883C192.315 159.586 193.174 160.133 194.164 160.523C195.18 160.888 196.312 161.07 197.562 161.07C198.76 161.07 199.854 160.875 200.844 160.484C201.859 160.094 202.732 159.547 203.461 158.844C204.19 158.141 204.763 157.281 205.18 156.266C205.596 155.25 205.805 154.117 205.805 152.867C205.805 151.747 205.609 150.68 205.219 149.664C204.828 148.648 204.268 147.776 203.539 147.047C202.81 146.292 201.938 145.693 200.922 145.25C199.932 144.807 198.812 144.586 197.562 144.586C196.391 144.586 195.297 144.794 194.281 145.211C193.266 145.602 192.393 146.174 191.664 146.93C190.935 147.659 190.362 148.531 189.945 149.547C189.529 150.562 189.32 151.669 189.32 152.867ZM191.039 128.062C191.039 129.052 191.208 129.99 191.547 130.875C191.911 131.734 192.393 132.49 192.992 133.141C193.591 133.766 194.294 134.26 195.102 134.625C195.935 134.99 196.807 135.172 197.719 135.172C198.656 135.172 199.529 134.99 200.336 134.625C201.143 134.26 201.846 133.753 202.445 133.102C203.07 132.451 203.552 131.695 203.891 130.836C204.255 129.977 204.438 129.052 204.438 128.062C204.438 127.047 204.268 126.109 203.93 125.25C203.591 124.365 203.109 123.609 202.484 122.984C201.885 122.333 201.169 121.826 200.336 121.461C199.529 121.096 198.656 120.914 197.719 120.914C196.729 120.914 195.818 121.109 194.984 121.5C194.177 121.865 193.474 122.372 192.875 123.023C192.302 123.648 191.846 124.404 191.508 125.289C191.195 126.148 191.039 127.073 191.039 128.062Z" fill="black"/>
</g>
</g>
<defs>
<filter id="filter0_f_2_123" x="-20" y="20" width="298" height="184" filterUnits="userSpaceOnUse" color-interpolation-filters="sRGB">
<feFlood flood-opacity="0" result="BackgroundImageFix"/>
<feBlend mode="normal" in="SourceGraphic" in2="BackgroundImageFix" result="shape"/>
<feGaussianBlur stdDeviation="18.5" result="effect1_foregroundBlur_2_123"/>
</filter>
<filter id="filter1_ii_2_123" x="17" y="62" width="224" height="148" filterUnits="userSpaceOnUse" color-interpolation-filters="sRGB">
<feFlood flood-opacity="0" result="BackgroundImageFix"/>
<feBlend mode="normal" in="SourceGraphic" in2="BackgroundImageFix" result="shape"/>
<feColorMatrix in="SourceAlpha" type="matrix" values="0 0 0 0 0 0 0 0 0 0 0 0 0 0 0 0 0 0 127 0" result="hardAlpha"/>
<feOffset dy="4"/>
<feComposite in2="hardAlpha" operator="arithmetic" k2="-1" k3="1"/>
<feColorMatrix type="matrix" values="0 0 0 0 1 0 0 0 0 1 0 0 0 0 1 0 0 0 0.25 0"/>
<feBlend mode="normal" in2="shape" result="effect1_innerShadow_2_123"/>
<feColorMatrix in="SourceAlpha" type="matrix" values="0 0 0 0 0 0 0 0 0 0 0 0 0 0 0 0 0 0 127 0" result="hardAlpha"/>
<feOffset dy="-4"/>
<feComposite in2="hardAlpha" operator="arithmetic" k2="-1" k3="1"/>
<feColorMatrix type="matrix" values="0 0 0 0 0 0 0 0 0 0 0 0 0 0 0 0 0 0 0.9 0"/>
<feBlend mode="soft-light" in2="effect1_innerShadow_2_123" result="effect2_innerShadow_2_123"/>
</filter>
<filter id="filter2_d_2_123" x="-7.28906" y="72.0469" width="271.695" height="151.93" filterUnits="userSpaceOnUse" color-interpolation-filters="sRGB">
<feFlood flood-opacity="0" result="BackgroundImageFix"/>
<feColorMatrix in="SourceAlpha" type="matrix" values="0 0 0 0 0 0 0 0 0 0 0 0 0 0 0 0 0 0 127 0" result="hardAlpha"/>
<feOffset dy="7"/>
<feGaussianBlur stdDeviation="23.5"/>
<feComposite in2="hardAlpha" operator="out"/>
<feColorMatrix type="matrix" values="0 0 0 0 0 0 0 0 0 0 0 0 0 0 0 0 0 0 0.25 0"/>
<feBlend mode="normal" in2="BackgroundImageFix" result="effect1_dropShadow_2_123"/>
<feBlend mode="normal" in="SourceGraphic" in2="effect1_dropShadow_2_123" result="shape"/>
</filter>
<linearGradient id="paint0_linear_2_123" x1="17" y1="29" x2="241" y2="206.5" gradientUnits="userSpaceOnUse">
<stop stop-color="#FF0000"/>
<stop offset="1" stop-color="#A70000"/>
</linearGradient>
<linearGradient id="paint1_linear_2_123" x1="17" y1="29" x2="197.768" y2="210.142" gradientUnits="userSpaceOnUse">
<stop stop-color="#05815D"/>
<stop offset="1" stop-color="#0C575F"/>
</linearGradient>
<linearGradient id="paint2_linear_2_123" x1="17" y1="62" x2="241" y2="210" gradientUnits="userSpaceOnUse">
<stop stop-color="white"/>
<stop offset="0.953125" stop-color="#D1D1D1"/>
</linearGradient>
<linearGradient id="paint3_linear_2_123" x1="120" y1="40" x2="220.802" y2="91.1542" gradientUnits="userSpaceOnUse">
<stop stop-color="#B0B0B0"/>
<stop offset="1" stop-color="#7D7D7D"/>
</linearGradient>
<clipPath id="clip0_2_123">
<rect width="256" height="256" fill="white"/>
</clipPath>
</defs>
</svg>
