<svg width="256" height="256" viewBox="0 0 256 256" fill="none" xmlns="http://www.w3.org/2000/svg">
<path fill-rule="evenodd" clip-rule="evenodd" d="M104.425 37.3784C100.056 32.0733 93.5437 29 86.6712 29H29C22.3726 29 17 34.3726 17 41V53.1371V63.2V155C17 161.627 22.3726 167 29 167H229C235.627 167 241 161.627 241 155V65.1371C241 58.5097 235.627 53.1371 229 53.1371H117.404L104.425 37.3784Z" fill="url(#paint0_linear_2_260)"/>
<mask id="mask0_2_260" style="mask-type:alpha" maskUnits="userSpaceOnUse" x="17" y="29" width="224" height="138">
<path fill-rule="evenodd" clip-rule="evenodd" d="M104.425 37.3784C100.056 32.0733 93.5437 29 86.6712 29H29C22.3726 29 17 34.3726 17 41V53.1371V63.2V155C17 161.627 22.3726 167 29 167H229C235.627 167 241 161.627 241 155V65.1371C241 58.5097 235.627 53.1371 229 53.1371H117.404L104.425 37.3784Z" fill="url(#paint1_linear_2_260)"/>
</mask>
<g mask="url(#mask0_2_260)">
<g filter="url(#filter0_f_2_260)">
<path fill-rule="evenodd" clip-rule="evenodd" d="M92.789 69C97.7642 69 102.605 67.3868 106.586 64.4024L116.459 57H229C235.627 57 241 62.3726 241 69V103V155C241 161.627 235.627 167 229 167H29C22.3726 167 17 161.627 17 155L17 103V81C17 74.3726 22.3726 69 29 69H87H92.789Z" fill="black" fill-opacity="0.3"/>
</g>
</g>
<g filter="url(#filter1_ii_2_260)">
<path fill-rule="evenodd" clip-rule="evenodd" d="M92.789 74C97.7642 74 102.605 72.3868 106.586 69.4024L116.459 62H229C235.627 62 241 67.3726 241 74V108V198C241 204.627 235.627 210 229 210H29C22.3726 210 17 204.627 17 198L17 108V86C17 79.3726 22.3726 74 29 74H87H92.789Z" fill="url(#paint2_linear_2_260)"/>
</g>
<path fill-rule="evenodd" clip-rule="evenodd" d="M120 51C120 44.9249 124.925 40 131 40C137.075 40 142 44.9249 142 51V64C142 70.0751 137.075 75 131 75C124.925 75 120 70.0751 120 64V51ZM207 51C207 44.9249 211.925 40 218 40C224.075 40 229 44.9249 229 51V64C229 70.0751 224.075 75 218 75C211.925 75 207 70.0751 207 64V51ZM175 40C168.925 40 164 44.9249 164 51V64C164 70.0751 168.925 75 175 75C181.075 75 186 70.0751 186 64V51C186 44.9249 181.075 40 175 40Z" fill="url(#paint3_linear_2_260)"/>
<g filter="url(#filter2_d_2_260)">
<path d="M48.0625 173.422V158.422C50.7812 160.703 53.7344 162.422 56.9219 163.578C60.1094 164.703 63.3281 165.266 66.5781 165.266C68.4844 165.266 70.1406 165.094 71.5469 164.75C72.9844 164.406 74.1719 163.938 75.1094 163.344C76.0781 162.719 76.7969 162 77.2656 161.188C77.7344 160.344 77.9688 159.438 77.9688 158.469C77.9688 157.156 77.5938 155.984 76.8438 154.953C76.0938 153.922 75.0625 152.969 73.75 152.094C72.4688 151.219 70.9375 150.375 69.1562 149.562C67.375 148.75 65.4531 147.922 63.3906 147.078C58.1406 144.891 54.2188 142.219 51.625 139.062C49.0625 135.906 47.7812 132.094 47.7812 127.625C47.7812 124.125 48.4844 121.125 49.8906 118.625C51.2969 116.094 53.2031 114.016 55.6094 112.391C58.0469 110.766 60.8594 109.578 64.0469 108.828C67.2344 108.047 70.6094 107.656 74.1719 107.656C77.6719 107.656 80.7656 107.875 83.4531 108.312C86.1719 108.719 88.6719 109.359 90.9531 110.234V124.25C89.8281 123.469 88.5938 122.781 87.25 122.188C85.9375 121.594 84.5781 121.109 83.1719 120.734C81.7656 120.328 80.3594 120.031 78.9531 119.844C77.5781 119.656 76.2656 119.562 75.0156 119.562C73.2969 119.562 71.7344 119.734 70.3281 120.078C68.9219 120.391 67.7344 120.844 66.7656 121.438C65.7969 122.031 65.0469 122.75 64.5156 123.594C63.9844 124.406 63.7188 125.328 63.7188 126.359C63.7188 127.484 64.0156 128.5 64.6094 129.406C65.2031 130.281 66.0469 131.125 67.1406 131.938C68.2344 132.719 69.5625 133.5 71.125 134.281C72.6875 135.031 74.4531 135.812 76.4219 136.625C79.1094 137.75 81.5156 138.953 83.6406 140.234C85.7969 141.484 87.6406 142.906 89.1719 144.5C90.7031 146.094 91.875 147.922 92.6875 149.984C93.5 152.016 93.9062 154.391 93.9062 157.109C93.9062 160.859 93.1875 164.016 91.75 166.578C90.3438 169.109 88.4219 171.172 85.9844 172.766C83.5469 174.328 80.7031 175.453 77.4531 176.141C74.2344 176.828 70.8281 177.172 67.2344 177.172C63.5469 177.172 60.0312 176.859 56.6875 176.234C53.375 175.609 50.5 174.672 48.0625 173.422ZM149.125 176H134.359V168.688H134.125C130.469 174.344 125.578 177.172 119.453 177.172C108.328 177.172 102.766 170.438 102.766 156.969V128H117.531V155.656C117.531 162.438 120.219 165.828 125.594 165.828C128.25 165.828 130.375 164.906 131.969 163.062C133.562 161.188 134.359 158.656 134.359 155.469V128H149.125V176ZM208 176H193.234V149.328C193.234 141.891 190.578 138.172 185.266 138.172C182.703 138.172 180.594 139.156 178.938 141.125C177.281 143.094 176.453 145.594 176.453 148.625V176H161.641V128H176.453V135.594H176.641C180.172 129.75 185.312 126.828 192.062 126.828C202.688 126.828 208 133.422 208 146.609V176Z" fill="black"/>
</g>
<defs>
<filter id="filter0_f_2_260" x="-20" y="20" width="298" height="184" filterUnits="userSpaceOnUse" color-interpolation-filters="sRGB">
<feFlood flood-opacity="0" result="BackgroundImageFix"/>
<feBlend mode="normal" in="SourceGraphic" in2="BackgroundImageFix" result="shape"/>
<feGaussianBlur stdDeviation="18.5" result="effect1_foregroundBlur_2_260"/>
</filter>
<filter id="filter1_ii_2_260" x="17" y="62" width="224" height="148" filterUnits="userSpaceOnUse" color-interpolation-filters="sRGB">
<feFlood flood-opacity="0" result="BackgroundImageFix"/>
<feBlend mode="normal" in="SourceGraphic" in2="BackgroundImageFix" result="shape"/>
<feColorMatrix in="SourceAlpha" type="matrix" values="0 0 0 0 0 0 0 0 0 0 0 0 0 0 0 0 0 0 127 0" result="hardAlpha"/>
<feOffset dy="4"/>
<feComposite in2="hardAlpha" operator="arithmetic" k2="-1" k3="1"/>
<feColorMatrix type="matrix" values="0 0 0 0 1 0 0 0 0 1 0 0 0 0 1 0 0 0 0.25 0"/>
<feBlend mode="normal" in2="shape" result="effect1_innerShadow_2_260"/>
<feColorMatrix in="SourceAlpha" type="matrix" values="0 0 0 0 0 0 0 0 0 0 0 0 0 0 0 0 0 0 127 0" result="hardAlpha"/>
<feOffset dy="-4"/>
<feComposite in2="hardAlpha" operator="arithmetic" k2="-1" k3="1"/>
<feColorMatrix type="matrix" values="0 0 0 0 0 0 0 0 0 0 0 0 0 0 0 0 0 0 0.9 0"/>
<feBlend mode="soft-light" in2="effect1_innerShadow_2_260" result="effect2_innerShadow_2_260"/>
</filter>
<filter id="filter2_d_2_260" x="0.78125" y="67.6562" width="254.219" height="163.516" filterUnits="userSpaceOnUse" color-interpolation-filters="sRGB">
<feFlood flood-opacity="0" result="BackgroundImageFix"/>
<feColorMatrix in="SourceAlpha" type="matrix" values="0 0 0 0 0 0 0 0 0 0 0 0 0 0 0 0 0 0 127 0" result="hardAlpha"/>
<feOffset dy="7"/>
<feGaussianBlur stdDeviation="23.5"/>
<feComposite in2="hardAlpha" operator="out"/>
<feColorMatrix type="matrix" values="0 0 0 0 0 0 0 0 0 0 0 0 0 0 0 0 0 0 0.25 0"/>
<feBlend mode="normal" in2="BackgroundImageFix" result="effect1_dropShadow_2_260"/>
<feBlend mode="normal" in="SourceGraphic" in2="effect1_dropShadow_2_260" result="shape"/>
</filter>
<linearGradient id="paint0_linear_2_260" x1="17" y1="29" x2="241" y2="206.5" gradientUnits="userSpaceOnUse">
<stop stop-color="#FF0000"/>
<stop offset="1" stop-color="#A70000"/>
</linearGradient>
<linearGradient id="paint1_linear_2_260" x1="17" y1="29" x2="197.768" y2="210.142" gradientUnits="userSpaceOnUse">
<stop stop-color="#05815D"/>
<stop offset="1" stop-color="#0C575F"/>
</linearGradient>
<linearGradient id="paint2_linear_2_260" x1="17" y1="62" x2="241" y2="210" gradientUnits="userSpaceOnUse">
<stop stop-color="white"/>
<stop offset="0.953125" stop-color="#D1D1D1"/>
</linearGradient>
<linearGradient id="paint3_linear_2_260" x1="120" y1="40" x2="220.802" y2="91.1542" gradientUnits="userSpaceOnUse">
<stop stop-color="#B0B0B0"/>
<stop offset="1" stop-color="#7D7D7D"/>
</linearGradient>
</defs>
</svg>
