<svg width="256" height="256" viewBox="0 0 256 256" fill="none" xmlns="http://www.w3.org/2000/svg">
<path fill-rule="evenodd" clip-rule="evenodd" d="M104.425 37.3784C100.056 32.0733 93.5437 29 86.6712 29H29C22.3726 29 17 34.3726 17 41V53.1371V63.2V155C17 161.627 22.3726 167 29 167H229C235.627 167 241 161.627 241 155V65.1371C241 58.5097 235.627 53.1371 229 53.1371H117.404L104.425 37.3784Z" fill="url(#paint0_linear_2_567)"/>
<mask id="mask0_2_567" style="mask-type:alpha" maskUnits="userSpaceOnUse" x="17" y="29" width="224" height="138">
<path fill-rule="evenodd" clip-rule="evenodd" d="M104.425 37.3784C100.056 32.0733 93.5437 29 86.6712 29H29C22.3726 29 17 34.3726 17 41V53.1371V63.2V155C17 161.627 22.3726 167 29 167H229C235.627 167 241 161.627 241 155V65.1371C241 58.5097 235.627 53.1371 229 53.1371H117.404L104.425 37.3784Z" fill="url(#paint1_linear_2_567)"/>
</mask>
<g mask="url(#mask0_2_567)">
<g filter="url(#filter0_f_2_567)">
<path fill-rule="evenodd" clip-rule="evenodd" d="M92.789 69C97.7642 69 102.605 67.3868 106.586 64.4024L116.459 57H229C235.627 57 241 62.3726 241 69V103V155C241 161.627 235.627 167 229 167H29C22.3726 167 17 161.627 17 155L17 103V81C17 74.3726 22.3726 69 29 69H87H92.789Z" fill="black" fill-opacity="0.3"/>
</g>
</g>
<g filter="url(#filter1_ii_2_567)">
<path fill-rule="evenodd" clip-rule="evenodd" d="M92.789 74C97.7642 74 102.605 72.3868 106.586 69.4024L116.459 62H229C235.627 62 241 67.3726 241 74V108V198C241 204.627 235.627 210 229 210H29C22.3726 210 17 204.627 17 198L17 108V86C17 79.3726 22.3726 74 29 74H87H92.789Z" fill="url(#paint2_linear_2_567)"/>
</g>
<path fill-rule="evenodd" clip-rule="evenodd" d="M120 51C120 44.9249 124.925 40 131 40C137.075 40 142 44.9249 142 51V64C142 70.0751 137.075 75 131 75C124.925 75 120 70.0751 120 64V51ZM207 51C207 44.9249 211.925 40 218 40C224.075 40 229 44.9249 229 51V64C229 70.0751 224.075 75 218 75C211.925 75 207 70.0751 207 64V51ZM175 40C168.925 40 164 44.9249 164 51V64C164 70.0751 168.925 75 175 75C181.075 75 186 70.0751 186 64V51C186 44.9249 181.075 40 175 40Z" fill="url(#paint3_linear_2_567)"/>
<g filter="url(#filter2_d_2_567)">
<path d="M93.3906 163.719H121.891V176H77.1719V170.938C77.1719 167.5 77.75 164.422 78.9062 161.703C80.0625 158.953 81.5156 156.5 83.2656 154.344C85.0156 152.156 86.9219 150.234 88.9844 148.578C91.0781 146.891 93.0625 145.375 94.9375 144.031C96.9062 142.625 98.625 141.281 100.094 140C101.594 138.719 102.844 137.453 103.844 136.203C104.875 134.922 105.641 133.641 106.141 132.359C106.641 131.047 106.891 129.656 106.891 128.188C106.891 125.312 106.078 123.141 104.453 121.672C102.828 120.203 100.344 119.469 97 119.469C91.2188 119.469 85.6875 121.766 80.4062 126.359V113.328C86.25 109.547 92.8438 107.656 100.188 107.656C103.594 107.656 106.641 108.109 109.328 109.016C112.047 109.891 114.344 111.156 116.219 112.812C118.094 114.469 119.516 116.484 120.484 118.859C121.484 121.203 121.984 123.828 121.984 126.734C121.984 129.828 121.5 132.578 120.531 134.984C119.594 137.391 118.328 139.578 116.734 141.547C115.172 143.516 113.359 145.328 111.297 146.984C109.234 148.609 107.094 150.188 104.875 151.719C103.375 152.781 101.922 153.844 100.516 154.906C99.1406 155.938 97.9219 156.969 96.8594 158C95.7969 159 94.9531 159.984 94.3281 160.953C93.7031 161.922 93.3906 162.844 93.3906 163.719ZM132.25 157.906C132.25 156.031 132.516 154.234 133.047 152.516C133.609 150.766 134.438 149.156 135.531 147.688C136.625 146.188 137.984 144.859 139.609 143.703C141.266 142.516 143.203 141.547 145.422 140.797C142.016 139.109 139.375 136.953 137.5 134.328C135.625 131.672 134.688 128.734 134.688 125.516C134.688 122.953 135.219 120.578 136.281 118.391C137.375 116.203 138.875 114.312 140.781 112.719C142.688 111.125 144.953 109.891 147.578 109.016C150.234 108.109 153.125 107.656 156.25 107.656C159.438 107.656 162.359 108.109 165.016 109.016C167.672 109.891 169.953 111.125 171.859 112.719C173.797 114.281 175.297 116.141 176.359 118.297C177.422 120.453 177.953 122.797 177.953 125.328C177.953 128.516 176.953 131.422 174.953 134.047C172.953 136.641 170.188 138.781 166.656 140.469C168.844 141.219 170.766 142.188 172.422 143.375C174.078 144.531 175.469 145.859 176.594 147.359C177.719 148.859 178.562 150.5 179.125 152.281C179.688 154.031 179.969 155.859 179.969 157.766C179.969 160.641 179.391 163.266 178.234 165.641C177.078 167.984 175.438 170.016 173.312 171.734C171.219 173.422 168.703 174.734 165.766 175.672C162.859 176.609 159.641 177.078 156.109 177.078C152.641 177.078 149.438 176.625 146.5 175.719C143.594 174.781 141.078 173.469 138.953 171.781C136.859 170.094 135.219 168.078 134.031 165.734C132.844 163.359 132.25 160.75 132.25 157.906ZM146.266 156.641C146.266 158.172 146.5 159.547 146.969 160.766C147.438 161.984 148.109 163.016 148.984 163.859C149.859 164.703 150.891 165.359 152.078 165.828C153.297 166.266 154.656 166.484 156.156 166.484C157.594 166.484 158.906 166.25 160.094 165.781C161.312 165.312 162.359 164.656 163.234 163.812C164.109 162.969 164.797 161.938 165.297 160.719C165.797 159.5 166.047 158.141 166.047 156.641C166.047 155.297 165.812 154.016 165.344 152.797C164.875 151.578 164.203 150.531 163.328 149.656C162.453 148.75 161.406 148.031 160.188 147.5C159 146.969 157.656 146.703 156.156 146.703C154.75 146.703 153.438 146.953 152.219 147.453C151 147.922 149.953 148.609 149.078 149.516C148.203 150.391 147.516 151.438 147.016 152.656C146.516 153.875 146.266 155.203 146.266 156.641ZM148.328 126.875C148.328 128.062 148.531 129.188 148.938 130.25C149.375 131.281 149.953 132.188 150.672 132.969C151.391 133.719 152.234 134.312 153.203 134.75C154.203 135.188 155.25 135.406 156.344 135.406C157.469 135.406 158.516 135.188 159.484 134.75C160.453 134.312 161.297 133.703 162.016 132.922C162.766 132.141 163.344 131.234 163.75 130.203C164.188 129.172 164.406 128.062 164.406 126.875C164.406 125.656 164.203 124.531 163.797 123.5C163.391 122.438 162.812 121.531 162.062 120.781C161.344 120 160.484 119.391 159.484 118.953C158.516 118.516 157.469 118.297 156.344 118.297C155.156 118.297 154.062 118.531 153.062 119C152.094 119.438 151.25 120.047 150.531 120.828C149.844 121.578 149.297 122.484 148.891 123.547C148.516 124.578 148.328 125.688 148.328 126.875Z" fill="black"/>
</g>
<defs>
<filter id="filter0_f_2_567" x="-20" y="20" width="298" height="184" filterUnits="userSpaceOnUse" color-interpolation-filters="sRGB">
<feFlood flood-opacity="0" result="BackgroundImageFix"/>
<feBlend mode="normal" in="SourceGraphic" in2="BackgroundImageFix" result="shape"/>
<feGaussianBlur stdDeviation="18.5" result="effect1_foregroundBlur_2_567"/>
</filter>
<filter id="filter1_ii_2_567" x="17" y="62" width="224" height="148" filterUnits="userSpaceOnUse" color-interpolation-filters="sRGB">
<feFlood flood-opacity="0" result="BackgroundImageFix"/>
<feBlend mode="normal" in="SourceGraphic" in2="BackgroundImageFix" result="shape"/>
<feColorMatrix in="SourceAlpha" type="matrix" values="0 0 0 0 0 0 0 0 0 0 0 0 0 0 0 0 0 0 127 0" result="hardAlpha"/>
<feOffset dy="4"/>
<feComposite in2="hardAlpha" operator="arithmetic" k2="-1" k3="1"/>
<feColorMatrix type="matrix" values="0 0 0 0 1 0 0 0 0 1 0 0 0 0 1 0 0 0 0.25 0"/>
<feBlend mode="normal" in2="shape" result="effect1_innerShadow_2_567"/>
<feColorMatrix in="SourceAlpha" type="matrix" values="0 0 0 0 0 0 0 0 0 0 0 0 0 0 0 0 0 0 127 0" result="hardAlpha"/>
<feOffset dy="-4"/>
<feComposite in2="hardAlpha" operator="arithmetic" k2="-1" k3="1"/>
<feColorMatrix type="matrix" values="0 0 0 0 0 0 0 0 0 0 0 0 0 0 0 0 0 0 0.9 0"/>
<feBlend mode="soft-light" in2="effect1_innerShadow_2_567" result="effect2_innerShadow_2_567"/>
</filter>
<filter id="filter2_d_2_567" x="30.1719" y="67.6562" width="196.797" height="163.422" filterUnits="userSpaceOnUse" color-interpolation-filters="sRGB">
<feFlood flood-opacity="0" result="BackgroundImageFix"/>
<feColorMatrix in="SourceAlpha" type="matrix" values="0 0 0 0 0 0 0 0 0 0 0 0 0 0 0 0 0 0 127 0" result="hardAlpha"/>
<feOffset dy="7"/>
<feGaussianBlur stdDeviation="23.5"/>
<feComposite in2="hardAlpha" operator="out"/>
<feColorMatrix type="matrix" values="0 0 0 0 0 0 0 0 0 0 0 0 0 0 0 0 0 0 0.25 0"/>
<feBlend mode="normal" in2="BackgroundImageFix" result="effect1_dropShadow_2_567"/>
<feBlend mode="normal" in="SourceGraphic" in2="effect1_dropShadow_2_567" result="shape"/>
</filter>
<linearGradient id="paint0_linear_2_567" x1="17" y1="29" x2="241" y2="206.5" gradientUnits="userSpaceOnUse">
<stop stop-color="#FF0000"/>
<stop offset="1" stop-color="#A70000"/>
</linearGradient>
<linearGradient id="paint1_linear_2_567" x1="17" y1="29" x2="197.768" y2="210.142" gradientUnits="userSpaceOnUse">
<stop stop-color="#05815D"/>
<stop offset="1" stop-color="#0C575F"/>
</linearGradient>
<linearGradient id="paint2_linear_2_567" x1="17" y1="62" x2="241" y2="210" gradientUnits="userSpaceOnUse">
<stop stop-color="white"/>
<stop offset="0.953125" stop-color="#D1D1D1"/>
</linearGradient>
<linearGradient id="paint3_linear_2_567" x1="120" y1="40" x2="220.802" y2="91.1542" gradientUnits="userSpaceOnUse">
<stop stop-color="#B0B0B0"/>
<stop offset="1" stop-color="#7D7D7D"/>
</linearGradient>
</defs>
</svg>
