<svg width="256" height="256" viewBox="0 0 256 256" fill="none" xmlns="http://www.w3.org/2000/svg">
<path fill-rule="evenodd" clip-rule="evenodd" d="M104.425 37.3784C100.056 32.0733 93.5437 29 86.6712 29H29C22.3726 29 17 34.3726 17 41V53.1371V63.2V155C17 161.627 22.3726 167 29 167H229C235.627 167 241 161.627 241 155V65.1371C241 58.5097 235.627 53.1371 229 53.1371H117.404L104.425 37.3784Z" fill="url(#paint0_linear_2_387)"/>
<mask id="mask0_2_387" style="mask-type:alpha" maskUnits="userSpaceOnUse" x="17" y="29" width="224" height="138">
<path fill-rule="evenodd" clip-rule="evenodd" d="M104.425 37.3784C100.056 32.0733 93.5437 29 86.6712 29H29C22.3726 29 17 34.3726 17 41V53.1371V63.2V155C17 161.627 22.3726 167 29 167H229C235.627 167 241 161.627 241 155V65.1371C241 58.5097 235.627 53.1371 229 53.1371H117.404L104.425 37.3784Z" fill="url(#paint1_linear_2_387)"/>
</mask>
<g mask="url(#mask0_2_387)">
<g filter="url(#filter0_f_2_387)">
<path fill-rule="evenodd" clip-rule="evenodd" d="M92.789 69C97.7642 69 102.605 67.3868 106.586 64.4024L116.459 57H229C235.627 57 241 62.3726 241 69V103V155C241 161.627 235.627 167 229 167H29C22.3726 167 17 161.627 17 155L17 103V81C17 74.3726 22.3726 69 29 69H87H92.789Z" fill="black" fill-opacity="0.3"/>
</g>
</g>
<g filter="url(#filter1_ii_2_387)">
<path fill-rule="evenodd" clip-rule="evenodd" d="M92.789 74C97.7642 74 102.605 72.3868 106.586 69.4024L116.459 62H229C235.627 62 241 67.3726 241 74V108V198C241 204.627 235.627 210 229 210H29C22.3726 210 17 204.627 17 198L17 108V86C17 79.3726 22.3726 74 29 74H87H92.789Z" fill="url(#paint2_linear_2_387)"/>
</g>
<path fill-rule="evenodd" clip-rule="evenodd" d="M120 51C120 44.9249 124.925 40 131 40C137.075 40 142 44.9249 142 51V64C142 70.0751 137.075 75 131 75C124.925 75 120 70.0751 120 64V51ZM207 51C207 44.9249 211.925 40 218 40C224.075 40 229 44.9249 229 51V64C229 70.0751 224.075 75 218 75C211.925 75 207 70.0751 207 64V51ZM175 40C168.925 40 164 44.9249 164 51V64C164 70.0751 168.925 75 175 75C181.075 75 186 70.0751 186 64V51C186 44.9249 181.075 40 175 40Z" fill="url(#paint3_linear_2_387)"/>
<g filter="url(#filter2_d_2_387)">
<path d="M104.141 157.906C104.141 156.031 104.406 154.234 104.938 152.516C105.5 150.766 106.328 149.156 107.422 147.688C108.516 146.188 109.875 144.859 111.5 143.703C113.156 142.516 115.094 141.547 117.312 140.797C113.906 139.109 111.266 136.953 109.391 134.328C107.516 131.672 106.578 128.734 106.578 125.516C106.578 122.953 107.109 120.578 108.172 118.391C109.266 116.203 110.766 114.312 112.672 112.719C114.578 111.125 116.844 109.891 119.469 109.016C122.125 108.109 125.016 107.656 128.141 107.656C131.328 107.656 134.25 108.109 136.906 109.016C139.562 109.891 141.844 111.125 143.75 112.719C145.688 114.281 147.188 116.141 148.25 118.297C149.312 120.453 149.844 122.797 149.844 125.328C149.844 128.516 148.844 131.422 146.844 134.047C144.844 136.641 142.078 138.781 138.547 140.469C140.734 141.219 142.656 142.188 144.312 143.375C145.969 144.531 147.359 145.859 148.484 147.359C149.609 148.859 150.453 150.5 151.016 152.281C151.578 154.031 151.859 155.859 151.859 157.766C151.859 160.641 151.281 163.266 150.125 165.641C148.969 167.984 147.328 170.016 145.203 171.734C143.109 173.422 140.594 174.734 137.656 175.672C134.75 176.609 131.531 177.078 128 177.078C124.531 177.078 121.328 176.625 118.391 175.719C115.484 174.781 112.969 173.469 110.844 171.781C108.75 170.094 107.109 168.078 105.922 165.734C104.734 163.359 104.141 160.75 104.141 157.906ZM118.156 156.641C118.156 158.172 118.391 159.547 118.859 160.766C119.328 161.984 120 163.016 120.875 163.859C121.75 164.703 122.781 165.359 123.969 165.828C125.188 166.266 126.547 166.484 128.047 166.484C129.484 166.484 130.797 166.25 131.984 165.781C133.203 165.312 134.25 164.656 135.125 163.812C136 162.969 136.688 161.938 137.188 160.719C137.688 159.5 137.938 158.141 137.938 156.641C137.938 155.297 137.703 154.016 137.234 152.797C136.766 151.578 136.094 150.531 135.219 149.656C134.344 148.75 133.297 148.031 132.078 147.5C130.891 146.969 129.547 146.703 128.047 146.703C126.641 146.703 125.328 146.953 124.109 147.453C122.891 147.922 121.844 148.609 120.969 149.516C120.094 150.391 119.406 151.438 118.906 152.656C118.406 153.875 118.156 155.203 118.156 156.641ZM120.219 126.875C120.219 128.062 120.422 129.188 120.828 130.25C121.266 131.281 121.844 132.188 122.562 132.969C123.281 133.719 124.125 134.312 125.094 134.75C126.094 135.188 127.141 135.406 128.234 135.406C129.359 135.406 130.406 135.188 131.375 134.75C132.344 134.312 133.188 133.703 133.906 132.922C134.656 132.141 135.234 131.234 135.641 130.203C136.078 129.172 136.297 128.062 136.297 126.875C136.297 125.656 136.094 124.531 135.688 123.5C135.281 122.438 134.703 121.531 133.953 120.781C133.234 120 132.375 119.391 131.375 118.953C130.406 118.516 129.359 118.297 128.234 118.297C127.047 118.297 125.953 118.531 124.953 119C123.984 119.438 123.141 120.047 122.422 120.828C121.734 121.578 121.188 122.484 120.781 123.547C120.406 124.578 120.219 125.688 120.219 126.875Z" fill="black"/>
</g>
<defs>
<filter id="filter0_f_2_387" x="-20" y="20" width="298" height="184" filterUnits="userSpaceOnUse" color-interpolation-filters="sRGB">
<feFlood flood-opacity="0" result="BackgroundImageFix"/>
<feBlend mode="normal" in="SourceGraphic" in2="BackgroundImageFix" result="shape"/>
<feGaussianBlur stdDeviation="18.5" result="effect1_foregroundBlur_2_387"/>
</filter>
<filter id="filter1_ii_2_387" x="17" y="62" width="224" height="148" filterUnits="userSpaceOnUse" color-interpolation-filters="sRGB">
<feFlood flood-opacity="0" result="BackgroundImageFix"/>
<feBlend mode="normal" in="SourceGraphic" in2="BackgroundImageFix" result="shape"/>
<feColorMatrix in="SourceAlpha" type="matrix" values="0 0 0 0 0 0 0 0 0 0 0 0 0 0 0 0 0 0 127 0" result="hardAlpha"/>
<feOffset dy="4"/>
<feComposite in2="hardAlpha" operator="arithmetic" k2="-1" k3="1"/>
<feColorMatrix type="matrix" values="0 0 0 0 1 0 0 0 0 1 0 0 0 0 1 0 0 0 0.25 0"/>
<feBlend mode="normal" in2="shape" result="effect1_innerShadow_2_387"/>
<feColorMatrix in="SourceAlpha" type="matrix" values="0 0 0 0 0 0 0 0 0 0 0 0 0 0 0 0 0 0 127 0" result="hardAlpha"/>
<feOffset dy="-4"/>
<feComposite in2="hardAlpha" operator="arithmetic" k2="-1" k3="1"/>
<feColorMatrix type="matrix" values="0 0 0 0 0 0 0 0 0 0 0 0 0 0 0 0 0 0 0.9 0"/>
<feBlend mode="soft-light" in2="effect1_innerShadow_2_387" result="effect2_innerShadow_2_387"/>
</filter>
<filter id="filter2_d_2_387" x="57.1406" y="67.6562" width="141.719" height="163.422" filterUnits="userSpaceOnUse" color-interpolation-filters="sRGB">
<feFlood flood-opacity="0" result="BackgroundImageFix"/>
<feColorMatrix in="SourceAlpha" type="matrix" values="0 0 0 0 0 0 0 0 0 0 0 0 0 0 0 0 0 0 127 0" result="hardAlpha"/>
<feOffset dy="7"/>
<feGaussianBlur stdDeviation="23.5"/>
<feComposite in2="hardAlpha" operator="out"/>
<feColorMatrix type="matrix" values="0 0 0 0 0 0 0 0 0 0 0 0 0 0 0 0 0 0 0.25 0"/>
<feBlend mode="normal" in2="BackgroundImageFix" result="effect1_dropShadow_2_387"/>
<feBlend mode="normal" in="SourceGraphic" in2="effect1_dropShadow_2_387" result="shape"/>
</filter>
<linearGradient id="paint0_linear_2_387" x1="17" y1="29" x2="241" y2="206.5" gradientUnits="userSpaceOnUse">
<stop stop-color="#FF0000"/>
<stop offset="1" stop-color="#A70000"/>
</linearGradient>
<linearGradient id="paint1_linear_2_387" x1="17" y1="29" x2="197.768" y2="210.142" gradientUnits="userSpaceOnUse">
<stop stop-color="#05815D"/>
<stop offset="1" stop-color="#0C575F"/>
</linearGradient>
<linearGradient id="paint2_linear_2_387" x1="17" y1="62" x2="241" y2="210" gradientUnits="userSpaceOnUse">
<stop stop-color="white"/>
<stop offset="0.953125" stop-color="#D1D1D1"/>
</linearGradient>
<linearGradient id="paint3_linear_2_387" x1="120" y1="40" x2="220.802" y2="91.1542" gradientUnits="userSpaceOnUse">
<stop stop-color="#B0B0B0"/>
<stop offset="1" stop-color="#7D7D7D"/>
</linearGradient>
</defs>
</svg>
