<svg width="256" height="256" viewBox="0 0 256 256" fill="none" xmlns="http://www.w3.org/2000/svg">
<path fill-rule="evenodd" clip-rule="evenodd" d="M104.425 37.3784C100.056 32.0733 93.5437 29 86.6712 29H29C22.3726 29 17 34.3726 17 41V53.1371V63.2V155C17 161.627 22.3726 167 29 167H229C235.627 167 241 161.627 241 155V65.1371C241 58.5097 235.627 53.1371 229 53.1371H117.404L104.425 37.3784Z" fill="url(#paint0_linear_2_396)"/>
<mask id="mask0_2_396" style="mask-type:alpha" maskUnits="userSpaceOnUse" x="17" y="29" width="224" height="138">
<path fill-rule="evenodd" clip-rule="evenodd" d="M104.425 37.3784C100.056 32.0733 93.5437 29 86.6712 29H29C22.3726 29 17 34.3726 17 41V53.1371V63.2V155C17 161.627 22.3726 167 29 167H229C235.627 167 241 161.627 241 155V65.1371C241 58.5097 235.627 53.1371 229 53.1371H117.404L104.425 37.3784Z" fill="url(#paint1_linear_2_396)"/>
</mask>
<g mask="url(#mask0_2_396)">
<g filter="url(#filter0_f_2_396)">
<path fill-rule="evenodd" clip-rule="evenodd" d="M92.789 69C97.7642 69 102.605 67.3868 106.586 64.4024L116.459 57H229C235.627 57 241 62.3726 241 69V103V155C241 161.627 235.627 167 229 167H29C22.3726 167 17 161.627 17 155L17 103V81C17 74.3726 22.3726 69 29 69H87H92.789Z" fill="black" fill-opacity="0.3"/>
</g>
</g>
<g filter="url(#filter1_ii_2_396)">
<path fill-rule="evenodd" clip-rule="evenodd" d="M92.789 74C97.7642 74 102.605 72.3868 106.586 69.4024L116.459 62H229C235.627 62 241 67.3726 241 74V108V198C241 204.627 235.627 210 229 210H29C22.3726 210 17 204.627 17 198L17 108V86C17 79.3726 22.3726 74 29 74H87H92.789Z" fill="url(#paint2_linear_2_396)"/>
</g>
<path fill-rule="evenodd" clip-rule="evenodd" d="M120 51C120 44.9249 124.925 40 131 40C137.075 40 142 44.9249 142 51V64C142 70.0751 137.075 75 131 75C124.925 75 120 70.0751 120 64V51ZM207 51C207 44.9249 211.925 40 218 40C224.075 40 229 44.9249 229 51V64C229 70.0751 224.075 75 218 75C211.925 75 207 70.0751 207 64V51ZM175 40C168.925 40 164 44.9249 164 51V64C164 70.0751 168.925 75 175 75C181.075 75 186 70.0751 186 64V51C186 44.9249 181.075 40 175 40Z" fill="url(#paint3_linear_2_396)"/>
<g filter="url(#filter2_d_2_396)">
<path d="M151.344 139.156C151.344 145.125 150.688 150.469 149.375 155.188C148.062 159.875 146.141 163.844 143.609 167.094C141.109 170.344 138.047 172.844 134.422 174.594C130.797 176.312 126.688 177.172 122.094 177.172C116.594 177.172 111.859 176.297 107.891 174.547V162.359C111.422 164.672 115.672 165.828 120.641 165.828C125.734 165.828 129.719 164.094 132.594 160.625C135.469 157.156 136.922 152.141 136.953 145.578L136.672 145.484C133.703 149.891 129.188 152.094 123.125 152.094C120.375 152.094 117.828 151.578 115.484 150.547C113.172 149.516 111.156 148.094 109.438 146.281C107.75 144.438 106.422 142.25 105.453 139.719C104.516 137.188 104.047 134.406 104.047 131.375C104.047 127.844 104.625 124.625 105.781 121.719C106.938 118.812 108.547 116.312 110.609 114.219C112.703 112.125 115.203 110.516 118.109 109.391C121.016 108.234 124.234 107.656 127.766 107.656C131.422 107.656 134.703 108.375 137.609 109.812C140.516 111.219 142.984 113.266 145.016 115.953C147.078 118.641 148.641 121.938 149.703 125.844C150.797 129.75 151.344 134.188 151.344 139.156ZM136.391 131.281C136.391 129.562 136.172 127.953 135.734 126.453C135.297 124.922 134.688 123.609 133.906 122.516C133.125 121.422 132.172 120.562 131.047 119.938C129.922 119.281 128.688 118.953 127.344 118.953C126.062 118.953 124.875 119.234 123.781 119.797C122.719 120.359 121.797 121.141 121.016 122.141C120.234 123.109 119.625 124.281 119.188 125.656C118.75 127.031 118.531 128.516 118.531 130.109C118.531 131.859 118.75 133.422 119.188 134.797C119.625 136.141 120.234 137.281 121.016 138.219C121.828 139.156 122.797 139.875 123.922 140.375C125.047 140.844 126.297 141.078 127.672 141.078C128.984 141.078 130.172 140.828 131.234 140.328C132.297 139.797 133.203 139.094 133.953 138.219C134.734 137.344 135.328 136.312 135.734 135.125C136.172 133.938 136.391 132.656 136.391 131.281Z" fill="black"/>
</g>
<defs>
<filter id="filter0_f_2_396" x="-20" y="20" width="298" height="184" filterUnits="userSpaceOnUse" color-interpolation-filters="sRGB">
<feFlood flood-opacity="0" result="BackgroundImageFix"/>
<feBlend mode="normal" in="SourceGraphic" in2="BackgroundImageFix" result="shape"/>
<feGaussianBlur stdDeviation="18.5" result="effect1_foregroundBlur_2_396"/>
</filter>
<filter id="filter1_ii_2_396" x="17" y="62" width="224" height="148" filterUnits="userSpaceOnUse" color-interpolation-filters="sRGB">
<feFlood flood-opacity="0" result="BackgroundImageFix"/>
<feBlend mode="normal" in="SourceGraphic" in2="BackgroundImageFix" result="shape"/>
<feColorMatrix in="SourceAlpha" type="matrix" values="0 0 0 0 0 0 0 0 0 0 0 0 0 0 0 0 0 0 127 0" result="hardAlpha"/>
<feOffset dy="4"/>
<feComposite in2="hardAlpha" operator="arithmetic" k2="-1" k3="1"/>
<feColorMatrix type="matrix" values="0 0 0 0 1 0 0 0 0 1 0 0 0 0 1 0 0 0 0.25 0"/>
<feBlend mode="normal" in2="shape" result="effect1_innerShadow_2_396"/>
<feColorMatrix in="SourceAlpha" type="matrix" values="0 0 0 0 0 0 0 0 0 0 0 0 0 0 0 0 0 0 127 0" result="hardAlpha"/>
<feOffset dy="-4"/>
<feComposite in2="hardAlpha" operator="arithmetic" k2="-1" k3="1"/>
<feColorMatrix type="matrix" values="0 0 0 0 0 0 0 0 0 0 0 0 0 0 0 0 0 0 0.9 0"/>
<feBlend mode="soft-light" in2="effect1_innerShadow_2_396" result="effect2_innerShadow_2_396"/>
</filter>
<filter id="filter2_d_2_396" x="57.0469" y="67.6562" width="141.297" height="163.516" filterUnits="userSpaceOnUse" color-interpolation-filters="sRGB">
<feFlood flood-opacity="0" result="BackgroundImageFix"/>
<feColorMatrix in="SourceAlpha" type="matrix" values="0 0 0 0 0 0 0 0 0 0 0 0 0 0 0 0 0 0 127 0" result="hardAlpha"/>
<feOffset dy="7"/>
<feGaussianBlur stdDeviation="23.5"/>
<feComposite in2="hardAlpha" operator="out"/>
<feColorMatrix type="matrix" values="0 0 0 0 0 0 0 0 0 0 0 0 0 0 0 0 0 0 0.25 0"/>
<feBlend mode="normal" in2="BackgroundImageFix" result="effect1_dropShadow_2_396"/>
<feBlend mode="normal" in="SourceGraphic" in2="effect1_dropShadow_2_396" result="shape"/>
</filter>
<linearGradient id="paint0_linear_2_396" x1="17" y1="29" x2="241" y2="206.5" gradientUnits="userSpaceOnUse">
<stop stop-color="#FF0000"/>
<stop offset="1" stop-color="#A70000"/>
</linearGradient>
<linearGradient id="paint1_linear_2_396" x1="17" y1="29" x2="197.768" y2="210.142" gradientUnits="userSpaceOnUse">
<stop stop-color="#05815D"/>
<stop offset="1" stop-color="#0C575F"/>
</linearGradient>
<linearGradient id="paint2_linear_2_396" x1="17" y1="62" x2="241" y2="210" gradientUnits="userSpaceOnUse">
<stop stop-color="white"/>
<stop offset="0.953125" stop-color="#D1D1D1"/>
</linearGradient>
<linearGradient id="paint3_linear_2_396" x1="120" y1="40" x2="220.802" y2="91.1542" gradientUnits="userSpaceOnUse">
<stop stop-color="#B0B0B0"/>
<stop offset="1" stop-color="#7D7D7D"/>
</linearGradient>
</defs>
</svg>
