<svg width="256" height="256" viewBox="0 0 256 256" fill="none" xmlns="http://www.w3.org/2000/svg">
<path fill-rule="evenodd" clip-rule="evenodd" d="M104.425 37.3784C100.056 32.0733 93.5437 29 86.6712 29H29C22.3726 29 17 34.3726 17 41V53.1371V63.2V155C17 161.627 22.3726 167 29 167H229C235.627 167 241 161.627 241 155V65.1371C241 58.5097 235.627 53.1371 229 53.1371H117.404L104.425 37.3784Z" fill="url(#paint0_linear_2_369)"/>
<mask id="mask0_2_369" style="mask-type:alpha" maskUnits="userSpaceOnUse" x="17" y="29" width="224" height="138">
<path fill-rule="evenodd" clip-rule="evenodd" d="M104.425 37.3784C100.056 32.0733 93.5437 29 86.6712 29H29C22.3726 29 17 34.3726 17 41V53.1371V63.2V155C17 161.627 22.3726 167 29 167H229C235.627 167 241 161.627 241 155V65.1371C241 58.5097 235.627 53.1371 229 53.1371H117.404L104.425 37.3784Z" fill="url(#paint1_linear_2_369)"/>
</mask>
<g mask="url(#mask0_2_369)">
<g filter="url(#filter0_f_2_369)">
<path fill-rule="evenodd" clip-rule="evenodd" d="M92.789 69C97.7642 69 102.605 67.3868 106.586 64.4024L116.459 57H229C235.627 57 241 62.3726 241 69V103V155C241 161.627 235.627 167 229 167H29C22.3726 167 17 161.627 17 155L17 103V81C17 74.3726 22.3726 69 29 69H87H92.789Z" fill="black" fill-opacity="0.3"/>
</g>
</g>
<g filter="url(#filter1_ii_2_369)">
<path fill-rule="evenodd" clip-rule="evenodd" d="M92.789 74C97.7642 74 102.605 72.3868 106.586 69.4024L116.459 62H229C235.627 62 241 67.3726 241 74V108V198C241 204.627 235.627 210 229 210H29C22.3726 210 17 204.627 17 198L17 108V86C17 79.3726 22.3726 74 29 74H87H92.789Z" fill="url(#paint2_linear_2_369)"/>
</g>
<path fill-rule="evenodd" clip-rule="evenodd" d="M120 51C120 44.9249 124.925 40 131 40C137.075 40 142 44.9249 142 51V64C142 70.0751 137.075 75 131 75C124.925 75 120 70.0751 120 64V51ZM207 51C207 44.9249 211.925 40 218 40C224.075 40 229 44.9249 229 51V64C229 70.0751 224.075 75 218 75C211.925 75 207 70.0751 207 64V51ZM175 40C168.925 40 164 44.9249 164 51V64C164 70.0751 168.925 75 175 75C181.075 75 186 70.0751 186 64V51C186 44.9249 181.075 40 175 40Z" fill="url(#paint3_linear_2_369)"/>
<g filter="url(#filter2_d_2_369)">
<path d="M152.422 153.641C152.422 156.953 151.844 160.047 150.688 162.922C149.531 165.797 147.922 168.297 145.859 170.422C143.797 172.516 141.344 174.172 138.5 175.391C135.656 176.578 132.547 177.172 129.172 177.172C125.391 177.172 122 176.469 119 175.062C116.031 173.656 113.516 171.625 111.453 168.969C109.391 166.281 107.812 163 106.719 159.125C105.625 155.25 105.078 150.859 105.078 145.953C105.078 140.172 105.781 134.938 107.188 130.25C108.625 125.531 110.656 121.5 113.281 118.156C115.938 114.812 119.141 112.234 122.891 110.422C126.641 108.578 130.859 107.656 135.547 107.656C140.734 107.656 144.766 108.266 147.641 109.484V121.859C144.234 119.922 140.516 118.953 136.484 118.953C133.984 118.953 131.719 119.438 129.688 120.406C127.656 121.375 125.906 122.75 124.438 124.531C123 126.312 121.859 128.469 121.016 131C120.203 133.5 119.766 136.297 119.703 139.391H119.984C123.172 134.984 127.875 132.781 134.094 132.781C136.875 132.781 139.391 133.281 141.641 134.281C143.891 135.281 145.812 136.703 147.406 138.547C149 140.359 150.234 142.547 151.109 145.109C151.984 147.672 152.422 150.516 152.422 153.641ZM137.938 154.578C137.938 147.359 134.984 143.75 129.078 143.75C127.734 143.75 126.516 144 125.422 144.5C124.328 145 123.391 145.703 122.609 146.609C121.828 147.516 121.219 148.594 120.781 149.844C120.375 151.062 120.172 152.422 120.172 153.922C120.172 155.578 120.391 157.125 120.828 158.562C121.266 160 121.875 161.266 122.656 162.359C123.469 163.422 124.422 164.266 125.516 164.891C126.609 165.516 127.828 165.828 129.172 165.828C130.516 165.828 131.719 165.562 132.781 165.031C133.875 164.469 134.797 163.703 135.547 162.734C136.328 161.734 136.922 160.547 137.328 159.172C137.734 157.766 137.938 156.234 137.938 154.578Z" fill="black"/>
</g>
<defs>
<filter id="filter0_f_2_369" x="-20" y="20" width="298" height="184" filterUnits="userSpaceOnUse" color-interpolation-filters="sRGB">
<feFlood flood-opacity="0" result="BackgroundImageFix"/>
<feBlend mode="normal" in="SourceGraphic" in2="BackgroundImageFix" result="shape"/>
<feGaussianBlur stdDeviation="18.5" result="effect1_foregroundBlur_2_369"/>
</filter>
<filter id="filter1_ii_2_369" x="17" y="62" width="224" height="148" filterUnits="userSpaceOnUse" color-interpolation-filters="sRGB">
<feFlood flood-opacity="0" result="BackgroundImageFix"/>
<feBlend mode="normal" in="SourceGraphic" in2="BackgroundImageFix" result="shape"/>
<feColorMatrix in="SourceAlpha" type="matrix" values="0 0 0 0 0 0 0 0 0 0 0 0 0 0 0 0 0 0 127 0" result="hardAlpha"/>
<feOffset dy="4"/>
<feComposite in2="hardAlpha" operator="arithmetic" k2="-1" k3="1"/>
<feColorMatrix type="matrix" values="0 0 0 0 1 0 0 0 0 1 0 0 0 0 1 0 0 0 0.25 0"/>
<feBlend mode="normal" in2="shape" result="effect1_innerShadow_2_369"/>
<feColorMatrix in="SourceAlpha" type="matrix" values="0 0 0 0 0 0 0 0 0 0 0 0 0 0 0 0 0 0 127 0" result="hardAlpha"/>
<feOffset dy="-4"/>
<feComposite in2="hardAlpha" operator="arithmetic" k2="-1" k3="1"/>
<feColorMatrix type="matrix" values="0 0 0 0 0 0 0 0 0 0 0 0 0 0 0 0 0 0 0.9 0"/>
<feBlend mode="soft-light" in2="effect1_innerShadow_2_369" result="effect2_innerShadow_2_369"/>
</filter>
<filter id="filter2_d_2_369" x="58.0781" y="67.6562" width="141.344" height="163.516" filterUnits="userSpaceOnUse" color-interpolation-filters="sRGB">
<feFlood flood-opacity="0" result="BackgroundImageFix"/>
<feColorMatrix in="SourceAlpha" type="matrix" values="0 0 0 0 0 0 0 0 0 0 0 0 0 0 0 0 0 0 127 0" result="hardAlpha"/>
<feOffset dy="7"/>
<feGaussianBlur stdDeviation="23.5"/>
<feComposite in2="hardAlpha" operator="out"/>
<feColorMatrix type="matrix" values="0 0 0 0 0 0 0 0 0 0 0 0 0 0 0 0 0 0 0.25 0"/>
<feBlend mode="normal" in2="BackgroundImageFix" result="effect1_dropShadow_2_369"/>
<feBlend mode="normal" in="SourceGraphic" in2="effect1_dropShadow_2_369" result="shape"/>
</filter>
<linearGradient id="paint0_linear_2_369" x1="17" y1="29" x2="241" y2="206.5" gradientUnits="userSpaceOnUse">
<stop stop-color="#FF0000"/>
<stop offset="1" stop-color="#A70000"/>
</linearGradient>
<linearGradient id="paint1_linear_2_369" x1="17" y1="29" x2="197.768" y2="210.142" gradientUnits="userSpaceOnUse">
<stop stop-color="#05815D"/>
<stop offset="1" stop-color="#0C575F"/>
</linearGradient>
<linearGradient id="paint2_linear_2_369" x1="17" y1="62" x2="241" y2="210" gradientUnits="userSpaceOnUse">
<stop stop-color="white"/>
<stop offset="0.953125" stop-color="#D1D1D1"/>
</linearGradient>
<linearGradient id="paint3_linear_2_369" x1="120" y1="40" x2="220.802" y2="91.1542" gradientUnits="userSpaceOnUse">
<stop stop-color="#B0B0B0"/>
<stop offset="1" stop-color="#7D7D7D"/>
</linearGradient>
</defs>
</svg>
